<svg viewBox="0 0 800 800" xmlns="http://www.w3.org/2000/svg"><path d="M561.1973229510518,495.5229909980932 L561.1733654399227,449.08674390605495 M542.8453575231449,449.08674335439 L543.1081535113872,450.33986657439027 M543.1081535113872,450.33986657439027 L543.8884380343991,451.5204394037896 M543.8884380343991,451.5204394037896 L545.1410058284573,452.5597798225526 M545.1410058284573,452.5597798225526 L546.7931312034304,453.3973848726439 M546.7931312034304,453.3973848726439 L548.7487722077017,453.98446667596477 M548.7487722077017,453.98446667596477 L550.8941692853125,454.2868183420111 M550.8941692853125,454.2868183420111 L553.1044721063831,454.28681799687513 M553.1044721063831,454.28681799687513 L555.2510379174273,453.98446633084893 M555.2510379174273,453.98446633084893 L557.2089473770136,453.39738466559777 M557.2089473770136,453.39738466559777 L558.864304131054,452.5597798225526 M558.864304131054,452.5597798225526 L560.1208867687399,451.520440231675 M560.1208867687399,451.520440231675 L560.905728485832,450.33986650541556 M560.905728485832,450.33986650541556 L561.1733654399227,449.08674390605495 M542.909660743318,495.522990445181 L542.8453575231449,449.08674335439 M561.1973229510518,495.5229909980932 L560.9302781060144,496.7789466846581 M560.9302781060144,496.7789466846581 L560.1471672612263,497.9621888675225 M560.1471672612263,497.9621888675225 L558.893354304502,499.0038771925358 M558.893354304502,499.0038771925358 L557.2416453582289,499.843374548774 M557.2416453582289,499.843374548774 L555.2880497455473,500.43178250880817 M555.2880497455473,500.43178250880817 L553.1462126370411,500.7348171699166 M553.1462126370411,500.7348171699166 L550.9407778189463,500.7348175158322 M550.9407778189463,500.7348175158322 L548.8001043042,500.43178285470367 M548.8001043042,500.43178285470367 L546.848767169434,499.84337475628786 M546.848767169434,499.84337475628786 L545.2002753793822,499.0038771925358 M545.2002753793822,499.0038771925358 L543.9504596080512,497.96218803776617 M543.9504596080512,497.96218803776617 L543.171885908798,496.7789467537888 M543.171885908798,496.7789467537888 L542.909660743318,495.522990445181 M622.7500842907303,460.22003518219765 L622.8615433027003,413.8636941430075 M622.7500842907303,460.22003518219765 L561.1973229510518,495.5229909980932 M622.8615433027003,413.8636941430075 L561.1733654399227,449.08674390605495 M671.683893534339,385.98684429370144 L631.9643512435277,408.6661235842457 M631.9643512435277,408.6661235842457 L631.7421576359818,409.8222387581601 M631.7421576359818,409.8222387581601 L631.0732235594953,410.9206238608101 M631.0732235594953,410.9206238608101 L629.9909841371073,411.90614098902495 M629.9909841371073,411.90614098902495 L628.5496325295227,412.7292998695764 M628.5496325295227,412.7292998695764 L626.8214410445808,413.3487393933023 M626.8214410445808,413.3487393933023 L624.8931396002301,413.73331731682276 M624.8931396002301,413.73331731682276 L622.8615433027003,413.8636941430075 M542.8453575231449,449.08674335439 L512.0169840458341,431.44529501019053 M441.0257389657311,540.784874191554 L512.0169840458341,431.44529501019053 M632.4956338167581,500.3888569557124 L441.0257389657311,540.784874191554 M632.4956338167581,500.3888569557124 L601.3621307435396,482.57279907499446 M601.3621307435396,482.57279907499446 L599.1615700469857,482.4196800919227 M599.1615700469857,482.4196800919227 L597.0882213390032,481.96924804296907 M597.0882213390032,481.96924804296907 L595.2627224029613,481.2477525874765 M595.2627224029613,481.2477525874765 L593.7912309276799,480.2972254399849 M593.7912309276799,480.2972254399849 L592.7592453972097,479.17301822628974 M592.7592453972097,479.17301822628974 L592.2266310787109,477.9405539896694 M592.2266310787109,477.9405539896694 L592.2241733208078,476.67150971550996 M592.2241733208078,476.67150971550996 L592.7518236853443,475.4396368115407 M592.7518236853443,475.4396368115407 L593.7787496338746,474.31647719195917 M593.7787496338746,474.31647719195917 L595.2451640730601,473.36721642246323 M595.2451640730601,473.36721642246323 L597.0658167624828,472.64691128385493 M597.0658167624828,472.64691128385493 L599.1349705129621,472.1973249092928 M599.1349705129621,472.1973249092928 L601.3325103130019,472.044509620946 M601.3325103130019,472.044509620946 L711.8413063856497,408.66611920522075 M711.8413063856497,408.66611920522075 L671.683893534339,385.98684429370144 M512.1489261488576,477.8415870976471 L512.0169840458341,431.44529501019053 M542.909660743318,495.522990445181 L512.1489261488576,477.8415870976471 M631.8329877846178,455.01062891437425 L631.6112667979166,456.1693777424283 M631.6112667979166,456.1693777424283 L630.943785986547,457.2702644627327 M630.943785986547,457.2702644627327 L629.8639080975657,458.2580257107071 M629.8639080975657,458.2580257107071 L628.4257081841495,459.0830586889017 M628.4257081841495,459.0830586889017 L626.701300524074,459.7039083096031 M626.701300524074,459.7039083096031 L624.7772250009348,460.08936160726785 M624.7772250009348,460.08936160726785 L622.7500842907303,460.22003518219765 M671.4659124821916,432.27957089194194 L631.8329877846178,455.01062891437425 M711.5347916315798,455.0106245253728 L671.4659124821916,432.27957089194194 M601.2679227398286,518.5325542564734 L711.5347916315798,455.0106245253728 M601.2679227398286,518.5325542564734 L599.0752302129072,518.6857135778002 M599.0752302129072,518.6857135778002 L597.0106390577113,519.1363120483883 M597.0106390577113,519.1363120483883 L595.1939997380769,519.8582385383288 M595.1939997380769,519.8582385383288 L593.7308165082206,520.8096356838751 M593.7308165082206,520.8096356838751 L592.7061517104371,521.9353225561308 M592.7061517104371,521.9353225561308 L592.179660556343,523.1699667151221 M592.179660556343,523.1699667151221 L592.1821074749487,524.4418651916628 M592.1821074749487,524.4418651916628 L592.7135406934772,525.6771007035604 M592.7135406934772,525.6771007035604 L593.743242762513,526.8038352066902 M593.743242762513,526.8038352066902 L595.2114806410733,527.7564987807284 M595.2114806410733,527.7564987807284 L597.0329448400436,528.4796156295713 M597.0329448400436,528.4796156295713 L599.1017124507825,528.9310598077043 M599.1017124507825,528.9310598077043 L601.2974125553773,529.0845228323382 M632.3619326805854,546.940543417435 L601.2974125553773,529.0845228323382 M632.3619326805854,546.940543417435 L441.3167208576833,587.4266721857066 M441.3167208576833,587.4266721857066 L512.1489261488576,477.8415870976471 M631.8329877846178,455.01062891437425 L631.9643512435277,408.6661235842457 M671.4659124821916,432.27957089194194 L671.683893534339,385.98684429370144 M711.5347916315798,455.0106245253728 L711.8413063856497,408.66611920522075 M601.2679227398286,518.5325542564734 L601.3325103130019,472.044509620946 M601.2974125553773,529.0845228323382 L601.3621307435396,482.57279907499446 M632.3619326805854,546.940543417435 L632.4956338167581,500.3888569557124 M441.3167208576833,587.4266721857066 L441.0257389657311,540.784874191554" stroke="black"  stroke-width="4"  fill="red"/>
<path d="M561.1493019816903,402.44514218212953 L561.1251318860042,355.5968477380621 M542.7158961270648,355.5968471889415 L542.9798412475948,356.84419171627894 M542.9798412475948,356.84419171627894 L543.76357007329,358.0193216349215 M543.76357007329,358.0193216349215 L545.0216784322303,359.05387126083895 M545.0216784322303,359.05387126083895 L546.6811192443614,359.8876160761295 M546.6811192443614,359.8876160761295 L548.6454251956626,360.4719925758533 M548.6454251956626,360.4719925758533 L550.8003322136638,360.77295110389485 M550.8003322136638,360.77295110389485 L553.0204357967073,360.7729507603491 M553.0204357967073,360.7729507603491 L555.176521930214,360.4719922323275 M555.176521930214,360.4719922323275 L557.1431164910489,359.8876158700375 M557.1431164910489,359.8876158700375 L558.8058174122688,359.05387126083895 M558.8058174122688,359.05387126083895 L560.0679762842024,358.01932245899036 M560.0679762842024,358.01932245899036 L560.8563028017402,356.8441916476223 M560.8563028017402,356.8441916476223 L561.1251318860042,355.5968477380621 M542.7807699353724,402.4451416317285 L542.7158961270648,355.5968471889415 M561.1493019816903,402.44514218212953 L560.8810702869362,403.69539432657285 M560.8810702869362,403.69539432657285 L560.094490028949,404.87326439181413 M560.094490028949,404.87326439181413 L558.8351254462002,405.9102242556426 M558.8351254462002,405.9102242556426 L557.1761047356246,406.7459116082286 M557.1761047356246,406.7459116082286 L555.2138623348321,407.33164947197486 M555.2138623348321,407.33164947197486 L553.0625468942758,407.63330912681215 M553.0625468942758,407.63330912681215 L550.8473545316949,407.6333094711582 M550.8473545316949,407.6333094711582 L548.6972129983872,407.3316498163008 M548.6972129983872,407.3316498163008 L546.7372490965884,406.7459118148008 M546.7372490965884,406.7459118148008 L545.0814740824258,405.9102242556426 M545.0814740824258,405.9102242556426 L543.8261421188274,404.8732635658246 M543.8261421188274,404.8732635658246 L543.0441392366331,403.6953943953897 M543.0441392366331,403.6953943953897 L542.7807699353724,402.4451416317285 M622.9734935432418,367.3030487699228 L623.0859382018485,320.53677253723305 M622.9734935432418,367.3030487699228 L561.1493019816903,402.44514218212953 M623.0859382018485,320.53677253723305 L561.1251318860042,355.5968477380621 M672.1227361569798,292.7896542193887 L632.2288179000759,315.36334002672004 M632.2288179000759,315.36334002672004 L632.0056729862135,316.51408409871317 M632.0056729862135,316.51408409871317 L631.3338133135724,317.607367354952 M631.3338133135724,317.607367354952 L630.2468197031446,318.58830776534865 M630.2468197031446,318.58830776534865 L628.799123085184,319.40764454839587 M628.799123085184,319.40764454839587 L627.0633139145943,320.0242082655097 M627.0633139145943,320.0242082655097 L625.1265046928556,320.4070009136667 M625.1265046928556,320.4070009136667 L623.0859382018485,320.53677253723305 M542.7158961270648,355.5968471889415 L511.75134857212277,338.0368928044126 M440.4398720568516,446.8756421356087 L511.75134857212277,338.0368928044126 M632.7648225603341,406.66347549146417 L440.4398720568516,446.8756421356087 M632.7648225603341,406.66347549146417 L601.4924303802675,388.92894282300847 M601.4924303802675,388.92894282300847 L599.2820836537351,388.77652567226073 M599.2820836537351,388.77652567226073 L597.1995116139849,388.32815832783854 M597.1995116139849,388.32815832783854 L595.3658893409888,387.6099704450642 M595.3658893409888,387.6099704450642 L593.8878472201943,386.66380150224154 M593.8878472201943,386.66380150224154 L592.8512642489065,385.5447498142148 M592.8512642489065,385.5447498142148 L592.3162719106433,384.3179387955099 M592.3162719106433,384.3179387955099 L592.3137922569709,383.05471687785644 M592.3137922569709,383.05471687785644 L592.8437764236592,381.82849709766697 M592.8437764236592,381.82849709766697 L593.8752547446406,380.7104928352329 M593.8752547446406,380.7104928352329 L595.3481746060299,379.765590054575 M595.3481746060299,379.765590054575 L597.1769074697677,379.0485922967061 M597.1769074697677,379.0485922967061 L599.255247177384,378.6010704836806 M599.255247177384,378.6010704836806 L601.4625461028936,378.4489569829519 M601.4625461028936,378.4489569829519 L712.4583952843734,315.3633356680414 M712.4583952843734,315.3633356680414 L672.1227361569798,292.7896542193887 M511.8844594498488,384.8441743428076 L511.75134857212277,338.0368928044126 M542.7807699353724,402.4451416317285 L511.8844594498488,384.8441743428076 M671.9028326914831,339.49064453923984 L632.0962933636099,362.11746889624084 M632.0962933636099,362.11746889624084 L631.873625117895,363.2709159443036 M631.873625117895,363.2709159443036 L631.2032314345674,364.36676667881653 M631.2032314345674,364.36676667881653 L630.1186201273069,365.3500103020847 M630.1186201273069,365.3500103020847 L628.6741029813996,366.17127054078605 M628.6741029813996,366.17127054078605 L626.942111028897,366.7892814976141 M626.942111028897,366.7892814976141 L625.0095650585677,367.1729725799565 M625.0095650585677,367.1729725799565 L622.9734935432418,367.3030487699228 M440.73345887781215,493.9349869804737 L511.8844594498488,384.8441743428076 M632.6299291460937,453.63028598564506 L440.73345887781215,493.9349869804737 M632.6299291460937,453.63028598564506 L601.4271360594281,435.8547221137487 M601.3973841441695,425.35042574665374 L599.1949755913528,425.50289244493706 M599.1949755913528,425.50289244493706 L597.121239034044,425.951453316413 M597.121239034044,425.951453316413 L595.2965552019123,426.67011562353787 M595.2965552019123,426.67011562353787 L593.8268952499811,427.6172117091321 M593.8268952499811,427.6172117091321 L592.7976981487811,428.7378105823068 M592.7976981487811,428.7378105823068 L592.2688834578015,429.9668754955186 M592.2688834578015,429.9668754955186 L592.2713521271817,431.23302772300156 M592.2713521271817,431.23302772300156 L592.8051528074091,432.4626839308394 M592.8051528074091,432.4626839308394 L593.8394319497972,433.5843303298868 M593.8394319497972,433.5843303298868 L595.3141914742869,434.5326927049258 M595.3141914742869,434.5326927049258 L597.1437430625945,435.2525452511478 M597.1437430625945,435.2525452511478 L599.2216932025747,435.70195173844934 M599.2216932025747,435.70195173844934 L601.4271360594281,435.8547221137487 M712.1491713491939,362.1174645273231 L601.3973841441695,425.35042574665374 M712.1491713491939,362.1174645273231 L671.9028326914831,339.49064453923984 M632.0962933636099,362.11746889624084 L632.2288179000759,315.36334002672004 M671.9028326914831,339.49064453923984 L672.1227361569798,292.7896542193887 M712.1491713491939,362.1174645273231 L712.4583952843734,315.3633356680414 M601.3973841441695,425.35042574665374 L601.4625461028936,378.4489569829519 M601.4271360594281,435.8547221137487 L601.4924303802675,388.92894282300847 M632.6299291460937,453.63028598564506 L632.7648225603341,406.66347549146417 M440.73345887781215,493.9349869804737 L440.4398720568516,446.8756421356087" stroke="black"  stroke-width="4"  fill="red"/>
<path d="M601.5279981635135,331.33868226466586 L601.4625461028936,378.4489569829519 M601.4924303802675,388.92894282300847 L599.2820836537351,388.77652567226073 M599.2820836537351,388.77652567226073 L597.1995116139849,388.32815832783854 M597.1995116139849,388.32815832783854 L595.3658893409888,387.6099704450642 M595.3658893409888,387.6099704450642 L593.8878472201943,386.66380150224154 M593.8878472201943,386.66380150224154 L592.8512642489065,385.5447498142148 M592.8512642489065,385.5447498142148 L592.3162719106433,384.3179387955099 M592.3162719106433,384.3179387955099 L592.3137922569709,383.05471687785644 M592.3137922569709,383.05471687785644 L592.8437764236592,381.82849709766697 M592.8437764236592,381.82849709766697 L593.8752547446406,380.7104928352329 M593.8752547446406,380.7104928352329 L595.3481746060299,379.765590054575 M595.3481746060299,379.765590054575 L597.1769074697677,379.0485922967061 M597.1769074697677,379.0485922967061 L599.255247177384,378.6010704836806 M599.255247177384,378.6010704836806 L601.4625461028936,378.4489569829519 M601.5580156883233,341.7940365864155 L601.4924303802675,388.92894282300847 M601.5279981635135,331.33868226466586 L599.3157870972739,331.4904379088357 M599.3157870972739,331.4904379088357 L597.2328237565393,331.9369069564881 M597.2328237565393,331.9369069564881 L595.4000238498156,332.6522182044919 M595.4000238498156,332.6522182044919 L593.9238295837207,333.59489873912366 M593.9238295837207,333.59489873912366 L592.8900599069927,334.7102741477497 M592.8900599069927,334.7102741477497 L592.3589010801888,335.93361123720274 M592.3589010801888,335.93361123720274 L592.3613917916268,337.193864153826 M592.3613917916268,337.193864153826 L592.8975811207029,338.41779240727806 M592.8975811207029,338.41779240727806 L593.9364782080786,339.53421510860954 M593.9364782080786,339.53421510860954 L595.4178175721686,340.47816163871033 M595.4178175721686,340.47816163871033 L597.2555286860566,341.19466286037846 M597.2555286860566,341.19466286037846 L599.3427432338035,341.64197732867694 M599.3427432338035,341.64197732867694 L601.5580156883233,341.7940365864155 M663.6254116661253,296.2060882522238 L663.4227437575271,343.2332476148812 M663.6254116661253,296.2060882522238 L601.5279981635135,331.33868226466586 M663.4227437575271,343.2332476148812 L601.4625461028936,378.4489569829519 M672.5654542491627,338.03689499340464 L670.5219808830303,338.1671132182445 M670.5219808830303,338.1671132182445 L668.5833698945119,338.55126165938645 M668.5833698945119,338.55126165938645 L666.8467241986932,339.1701255001884 M666.8467241986932,339.1701255001884 L665.3990518902025,339.9927552769802 M665.3990518902025,339.9927552769802 L664.3129434783226,340.9779888617456 M664.3129434783226,340.9779888617456 L663.642934154146,342.07649703194204 M663.642934154146,342.07649703194204 L663.4227437575271,343.2332476148812 M712.4583952843734,315.3633356680414 L672.5654542491627,338.03689499340464 M672.1227361569798,292.7896542193887 L712.4583952843734,315.3633356680414 M561.1251318860042,355.5968477380621 L672.1227361569798,292.7896542193887 M542.7158961270648,355.5968471889415 L542.9798412475948,356.84419171627894 M542.9798412475948,356.84419171627894 L543.76357007329,358.0193216349215 M543.76357007329,358.0193216349215 L545.0216784322303,359.05387126083895 M545.0216784322303,359.05387126083895 L546.6811192443614,359.8876160761295 M546.6811192443614,359.8876160761295 L548.6454251956626,360.4719925758533 M548.6454251956626,360.4719925758533 L550.8003322136638,360.77295110389485 M550.8003322136638,360.77295110389485 L553.0204357967073,360.7729507603491 M553.0204357967073,360.7729507603491 L555.176521930214,360.4719922323275 M555.176521930214,360.4719922323275 L557.1431164910489,359.8876158700375 M557.1431164910489,359.8876158700375 L558.8058174122688,359.05387126083895 M558.8058174122688,359.05387126083895 L560.0679762842024,358.01932245899036 M560.0679762842024,358.01932245899036 L560.8563028017402,356.8441916476223 M560.8563028017402,356.8441916476223 L561.1251318860042,355.5968477380621 M511.75134857212277,338.0368928044126 L542.7158961270648,355.5968471889415 M511.75134857212277,338.0368928044126 L440.4398720568516,446.8756421356087 M440.4398720568516,446.8756421356087 L632.7648225603341,406.66347549146417 M601.4924303802675,388.92894282300847 L632.7648225603341,406.66347549146417 M632.9003181684093,359.48699483753944 L632.7648225603341,406.66347549146417 M601.5580156883233,341.7940365864155 L632.9003181684093,359.48699483753944 M712.7689874490975,268.40233284733546 L672.7882895047383,291.0220451668214 M672.7882895047383,291.0220451668214 L670.7402883849934,291.15195477825716 M670.7402883849934,291.15195477825716 L668.7973873230997,291.5351928413173 M668.7973873230997,291.5351928413173 L667.0569038551894,292.15259019502173 M667.0569038551894,292.15259019502173 L665.6060382081691,292.973270887284 M665.6060382081691,292.973270887284 L664.5175410179239,293.9561705083472 M664.5175410179239,293.9561705083472 L663.8460675715085,295.05207686650715 M663.8460675715085,295.05207686650715 L663.6254116661253,296.2060882522238 M440.1449694921797,399.60539532712323 L632.9003181684093,359.48699483753944 M511.6176474102481,291.0220429830173 L440.1449694921797,399.60539532712323 M511.6176474102481,291.0220429830173 L542.6507341410851,308.5404466893521 M561.1008544236921,308.5404472371755 L560.831425282873,309.78484471057175 M560.831425282873,309.78484471057175 L560.0413447342564,310.9572002782319 M560.0413447342564,310.9572002782319 L558.7763791445059,311.98930633363653 M558.7763791445059,311.98930633363653 L557.109981647277,312.8210826647984 M557.109981647277,312.8210826647984 L555.1390155760341,313.40407962820495 M555.1390155760341,313.40407962820495 L552.97813754201,313.70432781207694 M552.97813754201,313.70432781207694 L550.7531009112428,313.7043281548119 M550.7531009112428,313.7043281548119 L548.5934072357333,313.4040799709197 M548.5934072357333,313.4040799709197 L546.6247399520284,312.82108287040387 M546.6247399520284,312.82108287040387 L544.9616170727536,311.98930633363653 M544.9616170727536,311.98930633363653 L543.7007200092248,310.95719945610904 M543.7007200092248,310.95719945610904 L542.915257604049,309.78484477906625 M542.915257604049,309.78484477906625 L542.6507341410851,308.5404466893521 M672.3436104863652,245.88248113217975 L561.1008544236921,308.5404472371755 M672.3436104863652,245.88248113217975 L712.7689874490975,268.40233284733546 M672.7882895047383,291.0220451668214 L672.5654542491627,338.03689499340464 M712.7689874490975,268.40233284733546 L712.4583952843734,315.3633356680414 M672.3436104863652,245.88248113217975 L672.1227361569798,292.7896542193887 M561.1008544236921,308.5404472371755 L561.1251318860042,355.5968477380621 M542.6507341410851,308.5404466893521 L542.7158961270648,355.5968471889415 M511.6176474102481,291.0220429830173 L511.75134857212277,338.0368928044126 M440.1449694921797,399.60539532712323 L440.4398720568516,446.8756421356087" stroke="black"  stroke-width="4"  fill="red"/>
<path d="M364.78511322344707,468.09045006764177 L365.2452873524693,514.881862614144 M511.8844594498488,384.8441743428076 L512.0169840458342,431.44529501019053 M364.78511322344707,468.09045006764177 L511.8844594498488,384.8441743428076 M365.2452873524693,514.881862614144 L512.0169840458342,431.44529501019053 M542.7807699353724,402.4451416317285 L542.8453575231449,449.0867433543899 M511.8844594498488,384.8441743428076 L542.7807699353724,402.4451416317285 M512.0169840458342,431.44529501019053 L542.8453575231449,449.0867433543899 M545.4612759753754,406.1401415568181 L545.5199708352851,452.790224700374 M542.7807699353724,402.4451416317285 L542.9543752252675,403.4643266799878 M542.9543752252675,403.4643266799878 L543.474352738164,404.444532884399 M543.474352738164,404.444532884399 L544.3208102131287,405.3480616153314 M544.3208102131287,405.3480616153314 L545.4612759753754,406.1401415568181 M542.8453575231449,449.0867433543899 L543.0185861266255,450.10826840081154 M543.0185861266255,450.10826840081154 L543.5374223336389,451.0907246906478 M543.5374223336389,451.0907246906478 L544.3820173548079,451.99632712803736 M544.3820173548079,451.99632712803736 L545.5199708352851,452.790224700374 M551.9548778778037,407.67143471534513 L551.9992481846455,454.32503104323496 M545.4612759753754,406.1401415568181 L546.8519396905297,406.7902744863184 M546.8519396905297,406.7902744863184 L548.4393420446984,407.2734200724043 M548.4393420446984,407.2734200724043 L550.1624220353127,407.5709623720444 M550.1624220353127,407.5709623720444 L551.9548778778037,407.67143471534513 M545.5199708352851,452.790224700374 L546.9075689033449,453.4418493262689 M546.9075689033449,453.4418493262689 L548.4914701370082,453.9261033477919 M548.4914701370082,453.9261033477919 L550.2107483334653,454.22432822102917 M550.2107483334653,454.22432822102917 L551.9992481846455,454.32503104323496 M561.1493019816903,402.44514218212953 L561.1733654399227,449.08674390605495 M551.9548778778037,407.67143471534513 L553.9998307794501,407.5403356922966 M553.9998307794501,407.5403356922966 L555.9426023140825,407.1536330329747 M555.9426023140825,407.1536330329747 L557.6856536838541,406.5307712779803 M557.6856536838541,406.5307712779803 L559.1415140781361,405.7030619923472 M559.1415140781361,405.7030619923472 L560.2371812280802,404.71209651928916 M560.2371812280802,404.71209651928916 L560.9177795483085,403.60764459325105 M560.9177795483085,403.60764459325105 L561.1493019816903,402.44514218212953 M551.9992481846455,454.32503104323496 L554.0396867895686,454.19363128423686 M554.0396867895686,454.19363128423686 L555.9781688021424,453.8060415015451 M555.9781688021424,453.8060415015451 L557.71737104781,453.18175072292104 M557.71737104781,453.18175072292104 L559.1700160212799,452.35214217778355 M559.1700160212799,452.35214217778355 L560.2632626871707,451.3589024524696 M560.2632626871707,451.3589024524696 L560.942356542352,450.2519153292318 M560.942356542352,450.2519153292318 L561.1733654399227,449.08674390605495 M671.9028326914831,339.49064453923984 L671.683893534339,385.98684429370144 M561.1493019816903,402.44514218212953 L671.9028326914831,339.49064453923984 M561.1733654399227,449.08674390605495 L671.683893534339,385.98684429370144 M712.1491713491939,362.1174645273231 L711.8413063856497,408.66611920522075 M671.9028326914831,339.49064453923984 L712.1491713491939,362.1174645273231 M671.683893534339,385.98684429370144 L711.8413063856497,408.66611920522075 M672.343602800439,384.8441765369206 L672.1227284878876,431.44529720935805 M712.1491713491939,362.1174645273231 L672.343602800439,384.8441765369206 M711.8413063856497,408.66611920522075 L672.1227284878876,431.44529720935805 M663.2209710695174,390.05267955991684 L663.0200875291735,436.6657932512867 M672.343602800439,384.8441765369206 L670.3046372102965,384.9746993873651 M670.3046372102965,384.9746993873651 L668.3702973897025,385.35974644242606 M668.3702973897025,385.35974644242606 L666.6374725773281,385.98005781819984 M666.6374725773281,385.98005781819984 L665.1929795803952,386.8046114871818 M665.1929795803952,386.8046114871818 L664.1092494849747,387.79214886359796 M664.1092494849747,387.79214886359796 L663.4406979128482,388.8932252046908 M663.4406979128482,388.8932252046908 L663.2209710695174,390.05267955991684 M672.1227284878876,431.44529720935805 L670.0882508314919,431.5761207414986 M670.0882508314919,431.5761207414986 L668.1581634013344,431.9620547757979 M668.1581634013344,431.9620547757979 L666.4291426979171,432.58379494302596 M666.4291426979171,432.58379494302596 L664.9878150802214,433.41024758917683 M664.9878150802214,433.41024758917683 L663.9064529097489,434.4000589173613 M663.9064529097489,434.4000589173613 L663.2393527620741,435.50367015861457 M663.2393527620741,435.50367015861457 L663.0200875291735,436.6657932512867 M601.3973841441695,425.35042574665374 L601.3325103130019,472.044509620946 M663.2209710695174,390.05267955991684 L601.3973841441695,425.35042574665374 M663.0200875291735,436.6657932512867 L601.3325103130019,472.044509620946 M592.2029703917501,430.5999122146684 L592.158403340635,477.30599245375186 M601.3973841441695,425.35042574665374 L599.3495108403692,425.4819769874932 M599.3495108403692,425.4819769874932 L597.4049219463427,425.8700516319725 M597.4049219463427,425.8700516319725 L595.661007428414,426.4952454128621 M595.661007428414,426.4952454128621 L594.205148520454,427.3262870355127 M594.205148520454,427.3262870355127 L593.1103474950266,428.3215925502743 M593.1103474950266,428.3215925502743 L592.4315695061869,429.4313318034392 M592.4315695061869,429.4313318034392 L592.2029703917501,430.5999122146684 M601.3325103130019,472.044509620946 L599.28916419347,472.1763616326796 M599.28916419347,472.1763616326796 L597.3488728409814,472.5653235046924 M597.3488728409814,472.5653235046924 L595.6088112543243,473.19194648626217 M595.6088112543243,473.19194648626217 L594.156167757335,474.0248876214082 M594.156167757335,474.0248876214082 L593.0637833890842,475.02246771791465 M593.0637833890842,475.02246771791465 L592.3865018261286,476.1347425696738 M592.3865018261286,476.1347425696738 L592.158403340635,477.30599245375186 M594.9084952683315,434.31507208763617 L594.8579250637083,481.02963525409166 M592.2029703917501,430.5999122146684 L592.3819349000461,431.62465722179604 M592.3819349000461,431.62465722179604 L592.9080304231051,432.6102123703279 M592.9080304231051,432.6102123703279 L593.7611261132431,433.5186710501448 M593.7611261132431,433.5186710501448 L594.9084952683315,434.31507208763617 M592.158403340635,477.30599245375186 L592.3369675139154,478.33307787929346 M592.3369675139154,478.33307787929346 L592.8618947344991,479.3208835165641 M592.8618947344991,479.3208835165641 L593.7130986699914,480.23141626932454 M593.7130986699914,480.23141626932454 L594.8579250637083,481.02963525409166 M601.4271360594282,435.8547221137487 L601.3621307435396,482.57279907499446 M594.9084952683315,434.31507208763617 L596.306067835749,434.9687540035774 M596.306067835749,434.9687540035774 L597.9001128713126,435.4545363370712 M597.9001128713126,435.4545363370712 L599.6293135476157,435.7537014153604 M599.6293135476157,435.7537014153604 L601.4271360594282,435.8547221137487 M594.8579250637083,481.02963525409166 L596.2524014854006,481.6848091291265 M596.2524014854006,481.6848091291265 L597.8429160700815,482.17170009045446 M597.8429160700815,482.17170009045446 L599.5682879208857,482.47154785789655 M599.5682879208857,482.47154785789655 L601.3621307435396,482.57279907499446 M632.6299291460937,453.63028598564506 L632.4956338167581,500.3888569557124 M601.4271360594282,435.8547221137487 L632.6299291460937,453.63028598564506 M601.3621307435396,482.57279907499446 L632.4956338167581,500.3888569557124 M485.5226935541104,537.9946358977036 L485.7161001756577,584.9435516162765 M632.6299291460937,453.63028598564506 L485.5226935541104,537.9946358977036 M632.4956338167581,500.3888569557124 L485.7161001756577,584.9435516162765 M146.6163417109199,661.4872182021188 L147.5784046153,708.7092700243816 M485.5226935541104,537.9946358977036 L490.05918686928186,546.3488906291606 M490.05918686928186,546.3488906291606 L493.50089902932535,554.8923400044679 M493.50089902932535,554.8923400044679 L495.82591534152004,563.5776773836403 M495.82591534152004,563.5776773836403 L497.0183989494903,572.3565923693614 M497.0183989494903,572.3565923693614 L497.0688536208422,581.1799540206121 M497.0688536208422,581.1799540206121 L495.97409769085607,589.9981966540066 M495.97409769085607,589.9981966540066 L493.7374300153237,598.7614947350683 M493.7374300153237,598.7614947350683 L490.3686687905427,607.4201091097553 M490.3686687905427,607.4201091097553 L485.884165608791,615.9246174721019 M485.884165608791,615.9246174721019 L480.3067120010238,624.2262755743859 M480.3067120010238,624.2262755743859 L473.66554390633354,632.2772617605784 M473.66554390633354,632.2772617605784 L465.99618021821885,640.0310011440872 M465.99618021821885,640.0310011440872 L457.340300582094,647.4424127062744 M457.340300582094,647.4424127062744 L447.7455170872024,654.4682533420677 M447.7455170872024,654.4682533420677 L437.26512007315876,661.0673275616635 M437.26512007315876,661.0673275616635 L425.9578417954025,667.2008478417728 M425.9578417954025,667.2008478417728 L413.88757839399824,672.8325749139105 M413.88757839399824,672.8325749139105 L401.12276209302627,677.9291900633347 M401.12276209302627,677.9291900633347 L387.7363753377408,682.4603983248352 M387.7363753377408,682.4603983248352 L373.80517132510784,686.3992060470457 M373.80517132510784,686.3992060470457 L359.40939963282665,689.7221263056214 M359.40939963282665,689.7221263056214 L344.63221277670016,692.4092735150134 M344.63221277670016,692.4092735150134 L329.5592124158784,694.4445415072122 M329.5592124158784,694.4445415072122 L314.2778524673862,695.8157342070666 M314.2778524673862,695.8157342070666 L298.8769644748005,696.5146154668697 M298.8769644748005,696.5146154668697 L283.4461420768391,696.5369845751436 M283.4461420768391,696.5369845751436 L268.0751635354123,695.8826932882611 M268.0751635354123,695.8826932882611 L252.85342008954774,694.5556973072502 M252.85342008954774,694.5556973072502 L237.86935745732566,692.5639559070212 M237.86935745732566,692.5639559070212 L223.20999007796416,689.9194034723856 M223.20999007796416,689.9194034723856 L208.96015380930078,686.637907061884 M208.96015380930078,686.637907061884 L195.20217589428566,682.739082656073 M195.20217589428566,682.739082656073 L182.015237466063,678.2462208438876 M182.015237466063,678.2462208438876 L169.4750018686187,673.1860566010209 M169.4750018686187,673.1860566010209 L157.65298671503064,667.5886790919642 M157.65298671503064,667.5886790919642 L146.6163417109199,661.4872182021188 M485.7161001756577,584.9435516162765 L490.2426001346943,593.3164897129759 M490.2426001346943,593.3164897129759 L493.6767567341296,601.8790146861801 M493.6767567341296,601.8790146861801 L495.99670917240127,610.5837124592181 M495.99670917240127,610.5837124592181 L497.1866613185504,619.382163636834 M497.1866613185504,619.382163636834 L497.23714374787,628.2251271683625 M497.23714374787,628.2251271683625 L496.1449875748777,637.06292703379 M496.1449875748777,637.06292703379 L493.9134898564699,645.8456275342387 M493.9134898564699,645.8456275342387 L490.55245214867483,654.5233802866005 M490.55245214867483,654.5233802866005 L486.07819435567507,663.046655180716 M486.07819435567507,663.046655180716 L480.5134613176294,671.3666023514697 M480.5134613176294,671.3666023514697 L473.8874271144609,679.4352972001955 M473.8874271144609,679.4352972001955 L466.23553383694446,687.2060652211521 M466.23553383694446,687.2060652211521 L457.5993695384464,694.6337295655861 M457.5993695384464,694.6337295655861 L448.02644034514327,701.6749557539284 M448.02644034514327,701.6749557539284 L437.5699167619435,708.2884617395131 M437.5699167619435,708.2884617395131 L426.2883978285205,714.4353789442672 M426.2883978285205,714.4353789442672 L414.2456336960255,720.0793927450804 M414.2456336960255,720.0793927450804 L401.5098992633482,725.187115475518 M401.5098992633482,725.187115475518 L388.15400832042167,729.7281897373394 M388.15400832042167,729.7281897373394 L374.2545359166349,733.6755664643541 M374.2545359166349,733.6755664643541 L359.891544711038,737.0057106833711 M359.891544711038,737.0057106833711 L345.1479929953059,739.6986962414222 M345.1479929953059,739.6986962414222 L330.10928207510693,741.7383841924839 M330.10928207510693,741.7383841924839 L314.8626609038107,743.1125536905038 M314.8626609038107,743.1125536905038 L299.4967527052729,743.8129518809028 M299.4967527052729,743.8129518809028 L284.1009410291416,743.8353695381579 M284.1009410291416,743.8353695381579 L268.764793783302,743.1796581162791 M268.764793783302,743.1796581162791 L253.5774930835335,741.8497813367602 M253.5774930835335,741.8497813367602 L238.62727820898613,739.8537146169178 M238.62727820898613,739.8537146169178 L224.0009611293918,737.2034165781137 M224.0009611293918,737.2034165781137 L209.78318106811076,733.9147865677627 M209.78318106811076,733.9147865677627 L196.05607536070795,730.0074805736062 M196.05607536070795,730.0074805736062 L182.8986435366812,725.5048368269795 M182.8986435366812,725.5048368269795 L170.3863765780967,720.4336451700296 M170.3863765780967,720.4336451700296 L158.5906304809399,714.824056760182 M158.5906304809399,714.824056760182 L147.5784046153,708.7092700243816 M146.6163417109199,661.4872182021188 L136.42726451357544,654.9177229225469 M136.42726451357544,654.9177229225469 L127.14282725666999,647.9188214503567 M127.14282725666999,647.9188214503567 L118.8144913007194,640.5315669145162 M118.8144913007194,640.5315669145162 L111.48801679185271,632.7990584580923 M111.48801679185271,632.7990584580923 L105.20304451908811,624.7662785628356 M105.20304451908811,624.7662785628356 L99.99307478904484,616.479710662547 M99.99307478904484,616.479710662547 L95.88520440269019,607.9871135493026 M95.88520440269019,607.9871135493026 L92.90013575959415,599.3371567117644 M92.90013575959415,599.3371567117644 L91.05198947971564,590.5792418213877 M91.05198947971564,590.5792418213877 L90.34836211552238,581.7630974678311 M90.34836211552238,581.7630974678311 L90.79039210786834,572.9385346377545 M90.79039210786834,572.9385346377545 L92.37269552525498,564.1551683042373 M92.37269552525498,564.1551683042373 L95.08354613461762,555.4621419170008 M95.08354613461762,555.4621419170008 L98.90498270095225,546.9078547378879 M98.90498270095225,546.9078547378879 L103.8129999692257,538.5396737417558 M103.8129999692257,538.5396737417558 L109.7776757457653,530.4037292216732 M109.7776757457653,530.4037292216732 L116.76341988918472,522.5446440442289 M116.76341988918472,522.5446440442289 L124.72928182801417,515.0053451944591 M124.72928182801417,515.0053451944591 L133.629103415953,507.8267943438649 M133.629103415953,507.8267943438649 L143.4118340139646,501.0478977504696 M143.4118340139646,501.0478977504696 L154.02196363870158,494.70512689454824 M154.02196363870158,494.70512689454824 L165.39962896465286,488.8325812031229 M165.39962896465286,488.8325812031229 L177.48117600621745,483.4616833327424 M177.48117600621745,483.4616833327424 L190.19931233802944,478.62106300344396 M190.19931233802944,478.62106300344396 L203.48362192473886,474.3364574026007 M203.48362192473886,474.3364574026007 L217.26081984180695,470.63059153087 M217.26081984180695,470.63059153087 L231.4552302276876,467.52306453061567 M231.4552302276876,467.52306453061567 L245.98909702859243,465.0302857297687 M245.98909702859243,465.0302857297687 L260.78302771058895,463.1653793259419 M260.78302771058895,463.1653793259419 L275.7563026003566,461.93817299048044 M275.7563026003566,461.93817299048044 L290.82739093214775,461.35512277092266 M290.82739093214775,461.35512277092266 L305.9142509080826,461.41928978726935 M305.9142509080826,461.41928978726935 L320.93483742192996,462.1303238574161 M320.93483742192996,462.1303238574161 L335.80732723081405,463.4845118384824 M335.80732723081405,463.4845118384824 L350.45072164310346,465.4747125418794 M350.45072164310346,465.4747125418794 L364.78511322344707,468.09045006764177 M147.5784046153,708.7092700243816 L137.4117589269406,702.1254088877024 M137.4117589269406,702.1254088877024 L128.14764082544718,695.111182241784 M128.14764082544718,695.111182241784 L119.83740098961601,687.7077294422949 M119.83740098961601,687.7077294422949 L112.52670303879779,679.9582406663491 M112.52670303879779,679.9582406663491 L106.2551062356722,671.9077939788048 M106.2551062356722,671.9077939788048 L101.05604426401925,663.6029721956995 M101.05604426401925,663.6029721956995 L96.9565626471882,655.0916368730451 M96.9565626471882,655.0916368730451 L93.97732764812275,646.4225629079838 M93.97732764812275,646.4225629079838 L92.1324391329635,637.6452596837529 M92.1324391329635,637.6452596837529 L91.42948793925632,628.8095649471436 M91.42948793925632,628.8095649471436 L91.8696214795699,619.9653997674493 M91.8696214795699,619.9653997674493 L93.44747941470717,611.1624895145245 M93.44747941470717,611.1624895145245 L96.1513731119536,602.4500877272797 M96.1513731119536,602.4500877272797 L99.96339250193552,593.8767028173031 M99.96339250193552,593.8767028173031 L104.85959643865698,585.4898092875366 M104.85959643865698,585.4898092875366 L110.81013932384758,577.335642827649 M110.81013932384758,577.335642827649 L117.77951937798952,569.4589288982943 M117.77951937798952,569.4589288982943 L125.72688533542879,561.90269377771 M125.72688533542879,561.90269377771 L134.60618883627268,554.7079944400876 M134.60618883627268,554.7079944400876 L144.36649872345922,547.9138281613957 M144.36649872345922,547.9138281613957 L154.9524331415204,541.556752204327 M154.9524331415204,541.556752204327 L166.30426528451613,535.6709465841809 M166.30426528451613,535.6709465841809 L178.35848479867136,530.2879085643988 M178.35848479867136,530.2879085643988 L191.04794968025453,525.4363361288016 M191.04794968025453,525.4363361288016 L204.30240000195087,521.1420280646912 M204.30240000195087,521.1420280646912 L218.04871213037552,517.4277639479426 M218.04871213037552,517.4277639479426 L232.2113757012083,514.3131901309529 M232.2113757012083,514.3131901309529 L246.7128037818882,511.81475556735745 M246.7128037818882,511.81475556735745 L261.47377572106467,509.94561621608193 M261.47377572106467,509.94561621608193 L276.4137459451656,508.7156235672006 M276.4137459451656,508.7156235672006 L291.45135900910367,508.1312493341619 M291.45135900910367,508.1312493341619 L306.5047491512869,508.1955620706276 M306.5047491512869,508.1955620706276 L321.49204705626164,508.9082107460549 M321.49204705626164,508.9082107460549 L336.3316046967003,510.2654731981979 M336.3316046967003,510.2654731981979 L350.94259684537684,512.2601909158219 M350.94259684537684,512.2601909158219 L365.2452873524693,514.881862614144 M314.73000384153096,565.7164604163954 L315.3066576267561,612.7272580787242 M272.82091284893016,589.5911732244116 L273.4930037593475,636.6550016337653 M314.73000384153096,565.7164604163954 L310.3642909495612,563.6221504990872 M310.3642909495612,563.6221504990872 L305.36444361139354,562.0664838998716 M305.36444361139354,562.0664838998716 L299.9220655743931,561.1087312974084 M299.9220655743931,561.1087312974084 L294.24542141477673,560.7853800429971 M294.24542141477673,560.7853800429971 L288.55164431650246,561.1087415111089 M288.55164431650246,561.1087415111089 L283.05855556188004,562.066488156357 M283.05855556188004,562.066488156357 L277.9763566370207,563.6221587307315 M277.9763566370207,563.6221587307315 L273.4997770505506,565.7164604163954 M273.4997770505506,565.7164604163954 L269.80058605546265,568.2695240371885 M269.80058605546265,568.2695240371885 L267.0211769644569,571.1837969482937 M267.0211769644569,571.1837969482937 L265.2689046458186,574.3477958835781 M265.2689046458186,574.3477958835781 L264.61195773968086,577.6402696475798 M264.61195773968086,577.6402696475798 L265.07661514014967,580.9347992563467 M265.07661514014967,580.9347992563467 L266.64601007837587,584.1046814261034 M266.64601007837587,584.1046814261034 L269.2607302031455,587.0277554117018 M269.2607302031455,587.0277554117018 L272.82091284893016,589.5911732244116 M315.3066576267561,612.7272580787242 L310.9506113299382,610.6282846261712 M310.9506113299382,610.6282846261712 L305.96187777543986,609.0691527090335 M305.96187777543986,609.0691527090335 L300.5316360534788,608.1092661542878 M300.5316360534788,608.1092661542878 L294.86768821867383,607.7851943578385 M294.86768821867383,607.7851943578385 L289.1866840815118,608.1092763907473 M289.1866840815118,608.1092763907473 L283.7059585656592,609.0691569750016 M283.7059585656592,609.0691569750016 L278.63524202025326,610.6282928761492 M278.63524202025326,610.6282928761492 L274.1688253373436,612.7272580787242 M274.1688253373436,612.7272580787242 L270.4780883381327,615.2860042333317 M270.4780883381327,615.2860042333317 L267.70509855101477,618.2067602390978 M267.70509855101477,618.2067602390978 L265.9569617141864,621.3777936961619 M265.9569617141864,621.3777936961619 L265.3017037512516,624.6775830731059 M265.3017037512516,624.6775830731059 L265.76553406694836,627.9794282208792 M265.76553406694836,627.9794282208792 L267.33161315484585,631.1563447655373 M267.33161315484585,631.1563447655373 L269.9406520854997,634.0859016174602 M269.9406520854997,634.0859016174602 L273.4930037593475,636.6550016337653 M272.82091284893016,589.5911732244116 L277.18990318580234,591.6958678252375 M277.18990318580234,591.6958678252375 L282.1996789425025,593.2603303733815 M282.1996789425025,593.2603303733815 L287.6571247501779,594.2239511530308 M287.6571247501779,594.2239511530308 L293.3516365941153,594.5493753650895 M293.3516365941153,594.5493753650895 L299.0633906847142,594.22395914723 M299.0633906847142,594.22395914723 L304.57184237363396,593.260335226114 M304.57184237363396,593.260335226114 L309.6644353596041,591.6958686813475 M309.6644353596041,591.6958686813475 L314.1448897036641,589.5911732244116 M314.1448897036641,589.5911732244116 L317.84075520223325,587.0277522754153 M317.84075520223325,587.0277522754153 L320.61023589121487,584.1046834208133 M320.61023589121487,584.1046834208133 L322.34745644828087,580.9348072303775 M322.34745644828087,580.9348072303775 L322.98653566880165,577.6402605401113 M322.98653566880165,577.6402605401113 L322.50390136286904,574.3477856440935 M322.50390136286904,574.3477856440935 L320.91912751633953,571.1837898418217 M320.91912751633953,571.1837898418217 L318.2940132785616,568.2695118208376 M318.2940132785616,568.2695118208376 L314.73000384153096,565.7164604163954 M273.4930037593475,636.6550016337653 L277.85231339004764,638.7643595072122 M277.85231339004764,638.7643595072122 L282.85093138464424,640.3322871334524 M282.85093138464424,640.3322871334524 L288.29617372722805,641.298041684889 M288.29617372722805,641.298041684889 L293.9779092512727,641.6241864029333 M293.9779092512727,641.6241864029333 L299.67680965173025,641.2980496967882 M299.67680965173025,641.2980496967882 L305.1728288987303,640.3322919969314 M305.1728288987303,640.3322919969314 L310.2538923997741,638.7643603652187 M310.2538923997741,638.7643603652187 L314.72416593104265,636.6550016337653 M314.72416593104265,636.6550016337653 L318.4115916545734,634.08589847422 M318.4115916545734,634.08589847422 L321.1746970181098,631.1563467646723 M321.1746970181098,631.1563467646723 L322.9078492068383,627.9794362126108 M322.9078492068383,627.9794362126108 L323.5453194790557,624.6775739454079 M323.5453194790557,624.6775739454079 L323.06359298634084,621.3777834339189 M323.06359298634084,621.3777834339189 L321.48220422955495,618.2067531168212 M321.48220422955495,618.2067531168212 L318.86281829167405,615.2859919897968 M318.86281829167405,615.2859919897968 L315.3066576267561,612.7272580787242" stroke="black"  stroke-width="4"  fill="red"/>
<path d="M561.1008544236921,308.5404472371755 L561.0764688871747,261.2745691957608 M542.5852820782527,261.27456864925176 L542.8503864232083,262.5159816768578 M542.8503864232083,262.5159816768578 L543.6375900939587,263.6855247237499 M543.6375900939587,263.6855247237499 L544.9012882522823,264.7151568173094 M544.9012882522823,264.7151568173094 L546.568109574995,265.54493925792326 M546.568109574995,265.54493925792326 L548.5411576010504,266.12653886344424 M548.5411576010504,266.12653886344424 L550.7056592464455,266.42606738369307 M550.7056592464455,266.42606738369307 L552.9356508961207,266.4260670417795 M552.9356508961207,266.4260670417795 L555.1013421780993,266.1265385215509 M555.1013421780993,266.1265385215509 L557.0766992377592,265.5449390528107 M557.0766992377592,265.5449390528107 L558.7468097843328,264.7151568173094 M558.7468097843328,264.7151568173094 L560.0145946025502,263.68552554390146 M560.0145946025502,263.68552554390146 L560.8064370050879,262.51598160852757 M560.8064370050879,262.51598160852757 L561.0764688871747,261.2745691957608 M542.6507341410851,308.5404466893521 L542.5852820782527,261.27456864925176 M561.1008544236921,308.5404472371755 L560.831425282873,309.78484471057175 M560.831425282873,309.78484471057175 L560.0413447342564,310.9572002782319 M560.0413447342564,310.9572002782319 L558.7763791445059,311.98930633363653 M558.7763791445059,311.98930633363653 L557.109981647277,312.8210826647984 M557.109981647277,312.8210826647984 L555.1390155760341,313.40407962820495 M555.1390155760341,313.40407962820495 L552.97813754201,313.70432781207694 M552.97813754201,313.70432781207694 L550.7531009112428,313.7043281548119 M550.7531009112428,313.7043281548119 L548.5934072357333,313.4040799709197 M548.5934072357333,313.4040799709197 L546.6247399520284,312.82108287040387 M546.6247399520284,312.82108287040387 L544.9616170727536,311.98930633363653 M544.9616170727536,311.98930633363653 L543.7007200092248,310.95719945610904 M543.7007200092248,310.95719945610904 L542.915257604049,309.78484477906625 M542.915257604049,309.78484477906625 L542.6507341410851,308.5404466893521 M623.1988806483289,273.56346392530645 L623.3123241517361,226.3817633191327 M623.1988806483289,273.56346392530645 L561.1008544236921,308.5404472371755 M623.3123241517361,226.3817633191327 L561.0764688871747,261.2745691957608 M672.5654620376704,198.76777501989403 L632.4956299740604,221.23310253505673 M632.4956299740604,221.23310253505673 L632.2715255807784,222.37833455519296 M632.2715255807784,222.37833455519296 L631.5967146110635,223.46638205256278 M631.5967146110635,223.46638205256278 L630.5049248590037,224.44262559262074 M630.5049248590037,224.44262559262074 L629.0508271199365,225.25803991960368 M629.0508271199365,225.25803991960368 L627.3073328092325,225.87165230848655 M627.3073328092325,225.87165230848655 L625.3619404022196,226.25261279369568 M625.3619404022196,226.25261279369568 L623.3123241517361,226.3817633191327 M542.5852820782527,261.27456864925176 L511.4833520809125,243.79825934569283 M439.84874243334247,352.1228439353729 L511.4833520809125,243.79825934569283 M633.0364199592681,312.0994551628111 L439.84874243334247,352.1228439353729 M633.0364199592681,312.0994551628111 L601.6238939076961,294.44862058983375 M601.6238939076961,294.44862058983375 L599.4036737223192,294.29692394547584 M599.4036737223192,294.29692394547584 L597.3117959220085,293.8506762392552 M597.3117959220085,293.8506762392552 L595.469977690869,293.1358839209439 M595.469977690869,293.1358839209439 L593.9853263395207,292.19418910627246 M593.9853263395207,292.19418910627246 L592.9441047807097,291.0804300483387 M592.9441047807097,291.0804300483387 L592.4067130926315,289.85942255391905 M592.4067130926315,289.85942255391905 L592.4042112493024,288.6021777595183 M592.4042112493024,288.6021777595183 L592.9365499547234,287.38176133584955 M592.9365499547234,287.38176133584955 L593.9726211899788,286.2690494045489 M593.9726211899788,286.2690494045489 L595.4521044516518,285.3286203785379 M595.4521044516518,285.3286203785379 L597.2889895316124,284.6150178449435 M597.2889895316124,284.6150178449435 L599.3765971235016,284.16961542183157 M599.3765971235016,284.16961542183157 L601.593742242268,284.0182223449706 M601.593742242268,284.0182223449706 L713.0809568240761,221.23309819725824 M713.0809568240761,221.23309819725824 L672.5654620376704,198.76777501989403 M511.6176474102481,291.0220429830173 L511.4833520809125,243.79825934569283 M542.6507341410851,308.5404466893521 L511.6176474102481,291.0220429830173 M632.3619288206008,268.40233719564145 L632.1383051952057,269.55034305449567 M632.1383051952057,269.55034305449567 L631.4649731076897,270.64102535474024 M631.4649731076897,270.64102535474024 L630.3755867051605,271.61963251448964 M630.3755867051605,271.61963251448964 L628.9246965867496,272.4370207525388 M628.9246965867496,272.4370207525388 L627.1850533335999,273.05211834975694 M627.1850533335999,273.05211834975694 L625.243962007524,273.4340008419708 M625.243962007524,273.4340008419708 L623.1988806483289,273.56346392530645 M672.3436104863652,245.88248113217975 L632.3619288206008,268.40233719564145 M712.7689874490975,268.40233284733546 L672.3436104863652,245.88248113217975 M601.5279981635135,331.33868226466586 L712.7689874490975,268.40233284733546 M601.5279981635135,331.33868226466586 L599.3157870972739,331.4904379088357 M599.3157870972739,331.4904379088357 L597.2328237565393,331.9369069564881 M597.2328237565393,331.9369069564881 L595.4000238498156,332.6522182044919 M595.4000238498156,332.6522182044919 L593.9238295837207,333.59489873912366 M593.9238295837207,333.59489873912366 L592.8900599069927,334.7102741477497 M592.8900599069927,334.7102741477497 L592.3589010801888,335.93361123720274 M592.3589010801888,335.93361123720274 L592.3613917916268,337.193864153826 M592.3613917916268,337.193864153826 L592.8975811207029,338.41779240727806 M592.8975811207029,338.41779240727806 L593.9364782080786,339.53421510860954 M593.9364782080786,339.53421510860954 L595.4178175721686,340.47816163871033 M595.4178175721686,340.47816163871033 L597.2555286860566,341.19466286037846 M597.2555286860566,341.19466286037846 L599.3427432338035,341.64197732867694 M599.3427432338035,341.64197732867694 L601.5580156883233,341.7940365864155 M632.9003181684093,359.48699483753944 L601.5580156883233,341.7940365864155 M632.9003181684093,359.48699483753944 L440.1449694921797,399.60539532712323 M440.1449694921797,399.60539532712323 L511.6176474102481,291.0220429830173 M632.3619288206008,268.40233719564145 L632.4956299740604,221.23310253505673 M672.3436104863652,245.88248113217975 L672.5654620376704,198.76777501989403 M712.7689874490975,268.40233284733546 L713.0809568240761,221.23309819725824 M601.5279981635135,331.33868226466586 L601.593742242268,284.0182223449706 M601.5580156883233,341.7940365864155 L601.6238939076961,294.44862058983375 M632.9003181684093,359.48699483753944 L633.0364199592681,312.0994551628111 M440.1449694921797,399.60539532712323 L439.84874243334247,352.1228439353729" stroke="black"  stroke-width="4"  fill="red"/>
<path d="M561.0519745531828,213.797811719667 L561.0273707109826,166.10879721104584 M542.4534999905068,166.10879666721706 L542.7197737848578,167.34412197576015 M542.7197737848578,167.34412197576015 L543.5104832490536,168.50793097472683 M543.5104832490536,168.50793097472683 L544.7798210971732,169.5325159654868 M544.7798210971732,169.5325159654868 L546.4540888717229,170.35823160984154 M546.4540888717229,170.35823160984154 L548.4359571295238,170.93698113115576 M548.4359571295238,170.93698113115576 L550.6101392199753,171.2350419500766 M550.6101392199753,171.2350419500766 L552.8501074069254,171.23504160983862 M552.8501074069254,171.23504160983862 L555.0254897965312,170.93698079093778 M555.0254897965312,170.93698079093778 L557.0096877866864,170.35823140573396 M557.0096877866864,170.35823140573396 L558.6872742915027,169.5325159654868 M558.6872742915027,169.5325159654868 L559.9607354324936,168.50793179085755 M559.9607354324936,168.50793179085755 L560.7561252203006,167.34412190776493 M560.7561252203006,167.34412190776493 L561.0273707109826,166.10879721104584 M542.5195379972756,213.7978111744893 L542.4534999905068,166.10879666721706 M561.0519745531828,213.797811719667 L560.7813372270584,215.03620001774038 M560.7813372270584,215.03620001774038 L559.9877250953065,216.20289552746308 M559.9877250953065,216.20289552746308 L558.7171084541382,217.23001962691268 M558.7171084541382,217.23001962691268 L557.0432682745213,218.05778166186641 M557.0432682745213,218.05778166186641 L555.0635006179633,218.63796533879554 M555.0635006179633,218.63796533879554 L552.8929745976234,218.9367647721785 M552.8929745976234,218.9367647721785 L550.6580058107434,218.9367651132597 M550.6580058107434,218.9367651132597 L548.4886747404295,218.63796567985668 M548.4886747404295,218.63796567985668 L546.5112264322122,218.05778186647964 M546.5112264322122,218.05778186647964 L544.8406901802718,217.23001962691268 M544.8406901802718,217.23001962691268 L543.5741784541892,216.202894709309 M543.5741784541892,216.202894709309 L542.7852257805416,215.03620008590417 M542.7852257805416,215.03620008590417 L542.5195379972756,213.7978111744893 M623.42627205381,178.9902808730059 L623.5407276376716,131.3876511209994 M623.42627205381,178.9902808730059 L561.0519745531828,213.797811719667 M623.5407276376716,131.3876511209994 L561.0273707109826,166.10879721104584 M673.0121226897902,103.91026677740354 L632.7648186486015,126.26440982851898 M632.7648186486015,126.26440982851898 L632.5397464976877,127.40398571421815 M632.5397464976877,127.40398571421815 L631.8619581915782,128.48666056363408 M631.8619581915782,128.48666056363408 L630.7653297893246,129.45808440973826 M630.7653297893246,129.45808440973826 L629.304774074567,130.26947369080347 M629.304774074567,130.26947369080347 L627.5535262738404,130.88005755060624 M627.5535262738404,130.88005755060624 L625.5994742716766,131.2591379426721 M625.5994742716766,131.2591379426721 L623.5407276376716,131.3876511209994 M542.4534999905068,166.10879666721706 L511.21296311092283,148.71833154868102 M439.25227921085497,256.51511746291635 L511.21296311092283,148.71833154868102 M633.3104583281036,216.68554478254288 L439.25227921085497,256.51511746291635 M633.3104583281036,216.68554478254288 L601.7565369133127,199.12062994666636 M601.7565369133127,199.12062994666636 L599.5263546691117,198.96967290136234 M599.5263546691117,198.96967290136234 L597.4250875749409,198.5256009983654 M597.4250875749409,198.5256009983654 L595.5749997910677,197.8142942084833 M595.5749997910677,197.8142942084833 L594.0836798385441,196.87719204346786 M594.0836798385441,196.87719204346786 L593.0377779933517,195.76886579240065 M593.0377779933517,195.76886579240065 L592.4979653385419,194.55381549636272 M592.4979653385419,194.55381549636272 L592.4954410063986,193.30270605912062 M592.4954410063986,193.30270605912062 L593.0301552633581,192.0882465898098 M593.0301552633581,192.0882465898098 L594.0708604960157,190.98096703131762 M594.0708604960157,190.98096703131762 L595.5569659107505,190.0451301181573 M595.5569659107505,190.0451301181573 L597.4020762118558,189.33501261930064 M597.4020762118558,189.33501261930064 L599.4990347106634,188.89178564207216 M599.4990347106634,188.89178564207216 L601.7261142551133,188.7411320425747 M601.7261142551133,188.7411320425747 L713.709063765376,126.26440551214631 M713.709063765376,126.26440551214631 L673.0121226897902,103.91026677740354 M511.34845861457865,196.3641460392171 L511.21296311092283,148.71833154868102 M542.5195379972756,213.7978111744893 L511.34845861457865,196.3641460392171 M672.7882973106089,151.44415553568362 L632.6299252949439,173.8542479727633 M632.6299252949439,173.8542479727633 L632.4053380641571,174.99667013421322 M632.4053380641571,174.99667013421322 L631.7290417022189,176.08204860708025 M631.7290417022189,176.08204860708025 L630.6348379731751,177.05589782212036 M630.6348379731751,177.05589782212036 L629.1775183993892,177.86931259105637 M629.1775183993892,177.86931259105637 L627.430155943155,178.4814204717551 M627.430155943155,178.4814204717551 L625.480443352179,178.86144696763614 M625.480443352179,178.86144696763614 L623.42627205381,178.9902808730059 M439.55118193721734,304.4265544577155 L511.34845861457865,196.3641460392171 M633.1731320099582,264.4994369322206 L439.55118193721734,304.4265544577155 M633.1731320099582,264.4994369322206 L601.6900670050395,246.89128143689172 M601.6597802978099,236.48616744891496 L599.437679067778,236.6371931951855 M599.437679067778,236.6371931951855 L597.3454064684777,237.081514980037 M597.3454064684777,237.081514980037 L595.5044179635258,237.7933863470426 M595.5044179635258,237.7933863470426 L594.0216310176581,238.73153427545728 M594.0216310176581,238.73153427545728 L592.9832479527977,239.84154771969526 M592.9832479527977,239.84154771969526 L592.449724115406,241.05900507886804 M592.449724115406,241.05900507886804 L592.4522371654159,242.31320219334074 M592.4522371654159,242.31320219334074 L592.9908366168781,243.53125051095287 M592.9908366168781,243.53125051095287 L594.0343930721351,244.6423108819792 M594.0343930721351,244.6423108819792 L595.52237125382,245.58172435142336 M595.52237125382,245.58172435142336 L597.368315001383,246.2947852758259 M597.368315001383,246.2947852758259 L599.4648769381781,246.73995217898707 M599.4648769381781,246.73995217898707 L601.6900670050395,246.89128143689172 M713.3943125897852,173.85424364560885 L601.6597802978099,236.48616744891496 M713.3943125897852,173.85424364560885 L672.7882973106089,151.44415553568362 M632.6299252949439,173.8542479727633 L632.7648186486015,126.26440982851898 M672.7882973106089,151.44415553568362 L673.0121226897902,103.91026677740354 M713.3943125897852,173.85424364560885 L713.709063765376,126.26440551214631 M601.6597802978099,236.48616744891496 L601.7261142551133,188.7411320425747 M601.6900670050395,246.89128143689172 L601.7565369133127,199.12062994666636 M633.1731320099582,264.4994369322206 L633.3104583281036,216.68554478254288 M439.55118193721734,304.4265544577155 L439.25227921085497,256.51511746291635" stroke="black"  stroke-width="4"  fill="red"/>
<path d="M601.7927462103781,140.78160734903668 L601.7261142551133,188.7411320425747 M601.7565369133127,199.12062994666636 L599.5263546691117,198.96967290136234 M599.5263546691117,198.96967290136234 L597.4250875749409,198.5256009983654 M597.4250875749409,198.5256009983654 L595.5749997910677,197.8142942084833 M595.5749997910677,197.8142942084833 L594.0836798385441,196.87719204346786 M594.0836798385441,196.87719204346786 L593.0377779933517,195.76886579240065 M593.0377779933517,195.76886579240065 L592.4979653385419,194.55381549636272 M592.4979653385419,194.55381549636272 L592.4954410063986,193.30270605912062 M592.4954410063986,193.30270605912062 L593.0301552633581,192.0882465898098 M593.0301552633581,192.0882465898098 L594.0708604960157,190.98096703131762 M594.0708604960157,190.98096703131762 L595.5569659107505,190.0451301181573 M595.5569659107505,190.0451301181573 L597.4020762118558,189.33501261930064 M597.4020762118558,189.33501261930064 L599.4990347106634,188.89178564207216 M599.4990347106634,188.89178564207216 L601.7261142551133,188.7411320425747 M601.823305737107,151.1351535897909 L601.7565369133127,199.12062994666636 M601.7927462103781,140.78160734903668 L599.5606659910945,140.93188393114679 M599.5606659910945,140.93188393114679 L597.4590005527507,141.3740017712439 M597.4590005527507,141.3740017712439 L595.6097499542844,142.08234244379594 M595.6097499542844,142.08234244379594 L594.1203111813924,143.0158380858528 M594.1203111813924,143.0158380858528 L593.0772733696405,144.12034795972102 M593.0772733696405,144.12034795972102 L592.5413633682037,145.33177027481074 M592.5413633682037,145.33177027481074 L592.5438990586291,146.57975158521174 M592.5438990586291,146.57975158521174 L593.084930395469,147.7917645755728 M593.084930395469,147.7917645755728 L594.133188198624,148.8973208728258 M594.133188198624,148.8973208728258 L595.6278649685457,149.83208143528663 M595.6278649685457,149.83208143528663 L597.4821154400327,150.54161109275134 M597.4821154400327,150.54161109275134 L599.5881088615916,150.98457363784308 M599.5881088615916,150.98457363784308 L601.823305737107,151.1351535897909 M664.4451547739809,105.9925017195676 L664.2388460584921,153.86447567095644 M664.4451547739809,105.9925017195676 L601.7927462103781,140.78160734903668 M664.2388460584921,153.86447567095644 L601.7261142551133,188.7411320425747 M673.4627632939212,148.71833371651175 L671.4010577248354,148.84729311713767 M671.4010577248354,148.84729311713767 L669.4451717599392,149.2277281516977 M669.4451717599392,149.2277281516977 L667.6930725286825,149.84061022197824 M667.6930725286825,149.84061022197824 L666.2325417797895,150.65528970246532 M666.2325417797895,150.65528970246532 L665.1368147956466,151.63100304131666 M665.1368147956466,151.63100304131666 L664.4609103457547,152.718898371084 M664.4609103457547,152.718898371084 L664.2388460584921,153.86447567095644 M713.709063765376,126.26440551214631 L673.4627632939212,148.71833371651175 M673.0121226897902,103.91026677740354 L713.709063765376,126.26440551214631 M561.0273707109826,166.10879721104584 L673.0121226897902,103.91026677740354 M542.4534999905068,166.10879666721706 L542.7197737848578,167.34412197576015 M542.7197737848578,167.34412197576015 L543.5104832490536,168.50793097472683 M543.5104832490536,168.50793097472683 L544.7798210971732,169.5325159654868 M544.7798210971732,169.5325159654868 L546.4540888717229,170.35823160984154 M546.4540888717229,170.35823160984154 L548.4359571295238,170.93698113115576 M548.4359571295238,170.93698113115576 L550.6101392199753,171.2350419500766 M550.6101392199753,171.2350419500766 L552.8501074069254,171.23504160983862 M552.8501074069254,171.23504160983862 L555.0254897965312,170.93698079093778 M555.0254897965312,170.93698079093778 L557.0096877866864,170.35823140573396 M557.0096877866864,170.35823140573396 L558.6872742915027,169.5325159654868 M558.6872742915027,169.5325159654868 L559.9607354324936,168.50793179085755 M559.9607354324936,168.50793179085755 L560.7561252203006,167.34412190776493 M560.7561252203006,167.34412190776493 L561.0273707109826,166.10879721104584 M511.21296311092283,148.71833154868102 L542.4534999905068,166.10879666721706 M511.21296311092283,148.71833154868102 L439.25227921085497,256.51511746291635 M439.25227921085497,256.51511746291635 L633.3104583281036,216.68554478254288 M601.7565369133127,199.12062994666636 L633.3104583281036,216.68554478254288 M633.4484032761097,168.65625982365455 L633.3104583281036,216.68554478254288 M601.823305737107,151.1351535897909 L633.4484032761097,168.65625982365455 M673.6895995971586,100.85932368519332 L671.6232850282313,100.98795807414945 M671.6232850282313,100.98795807414945 L669.6630321057169,101.36743435506548 M669.6630321057169,101.36743435506548 L667.9070264216386,101.97877200484703 M667.9070264216386,101.97877200484703 L666.4432452927837,102.79139880666173 M666.4432452927837,102.79139880666173 L665.345086988513,103.76465411009053 M665.345086988513,103.76465411009053 L664.667692515887,104.84980929025448 M664.667692515887,104.84980929025448 L664.4451547739809,105.9925017195676 M714.0252201809101,78.4620975084249 L673.6895995971586,100.85932368519332 M673.2369451360858,56.16463046184214 L714.0252201809101,78.4620975084249 M561.002656586375,118.20602505900735 L673.2369451360858,56.16463046184214 M561.002656586375,118.20602505900735 L560.7308001912941,119.43824622256244 M560.7308001912941,119.43824622256244 L559.9336247644555,120.59913285860733 M559.9336247644555,120.59913285860733 L558.6573063570421,121.62114398824417 M558.6573063570421,121.62114398824417 L556.9759567167462,122.44478614196521 M556.9759567167462,122.44478614196521 L554.9873085166454,123.02208252687842 M554.9873085166454,123.02208252687842 L552.807047973841,123.31939509619872 M552.807047973841,123.31939509619872 L550.5620579664899,123.31939543558252 M550.5620579664899,123.31939543558252 L548.383003107983,123.02208286624239 M548.383003107983,123.02208286624239 L546.3966950941649,122.4447863455602 M546.3966950941649,122.4447863455602 L544.71867908641,121.62114398824417 M544.71867908641,121.62114398824417 L543.4465024733756,120.59913204452647 M543.4465024733756,120.59913204452647 L542.6540283761265,119.43824629038693 M542.6540283761265,119.43824629038693 L542.387165979955,118.20602451654491 M511.07686132029835,100.85932152282601 L542.387165979955,118.20602451654491 M511.07686132029835,100.85932152282601 L438.9520246881403,208.38699958819114 M438.9520246881403,208.38699958819114 L633.4484032761097,168.65625982365455 M673.6895995971586,100.85932368519332 L673.4627632939212,148.71833371651175 M714.0252201809101,78.4620975084249 L713.709063765376,126.26440551214631 M673.2369451360858,56.16463046184214 L673.0121226897902,103.91026677740354 M561.002656586375,118.20602505900735 L561.0273707109826,166.10879721104584 M542.387165979955,118.20602451654491 L542.4534999905068,166.10879666721706 M511.07686132029835,100.85932152282601 L511.21296311092283,148.71833154868102 M438.9520246881403,208.38699958819114 L439.25227921085497,256.51511746291635" stroke="black"  stroke-width="4"  fill="red"/>
<path d="M362.9237543961517,278.82381534803983 L363.3922212921501,326.458452787607 M511.34845861457865,196.3641460392171 L511.4833520809125,243.79825934569283 M362.9237543961517,278.82381534803983 L511.34845861457865,196.3641460392171 M363.3922212921501,326.458452787607 L511.4833520809125,243.79825934569283 M542.5195379972756,213.7978111744893 L542.5852820782527,261.27456864925176 M511.34845861457865,196.3641460392171 L542.5195379972756,213.7978111744893 M511.4833520809125,243.79825934569283 L542.5852820782527,261.27456864925176 M545.2238769093962,217.4577563671893 L545.2836231287381,264.94344939215944 M542.5195379972756,213.7978111744893 L542.6946665537712,214.8073248083453 M542.6946665537712,214.8073248083453 L543.2192599456162,215.77823115843137 M543.2192599456162,215.77823115843137 L544.0732501048633,216.67318897947825 M544.0732501048633,216.67318897947825 L545.2238769093962,217.4577563671893 M542.5852820782527,261.27456864925176 L542.7600273182143,262.2865475421311 M542.7600273182143,262.2865475421311 L543.2834590745341,263.25982444845965 M543.2834590745341,263.25982444845965 L544.1355535216837,264.1569670233427 M544.1355535216837,264.1569670233427 L545.2836231287381,264.94344939215944 M551.7754160512563,218.97452887954222 L551.8205812511058,266.4639232928216 M545.2238769093962,217.4577563671893 L546.6269398791635,218.10172385391752 M546.6269398791635,218.10172385391752 L548.2285028750541,218.58028806603653 M548.2285028750541,218.58028806603653 L549.9669596773557,218.8750091527321 M549.9669596773557,218.8750091527321 L551.7754160512563,218.97452887954222 M545.2836231287381,264.94344939215944 L546.6835656020669,265.5889884798704 M546.6835656020669,265.5889884798704 L548.2815648045342,266.06872050859306 M548.2815648045342,266.06872050859306 L550.0161517314934,266.3641607384862 M550.0161517314934,266.3641607384862 L551.8205812511058,266.4639232928216 M561.0519745531828,213.797811719667 L561.0764688871747,261.2745691957608 M551.7754160512563,218.97452887954222 L553.838627671465,218.84467285961384 M553.838627671465,218.84467285961384 L555.7987488272136,218.4616368565891 M555.7987488272136,218.4616368565891 L557.5573685877323,217.84468152050977 M557.5573685877323,217.84468152050977 L559.0262342817946,217.02482219066516 M559.0262342817946,217.02482219066516 L560.1316915051848,216.04325652841862 M560.1316915051848,216.04325652841862 L560.8183749406433,214.94928286871516 M560.8183749406433,214.94928286871516 L561.0519745531828,213.797811719667 M551.8205812511058,266.4639232928216 L553.8791976919086,266.33375042413206 M553.8791976919086,266.33375042413206 L555.8349524557798,265.94977976985047 M555.8349524557798,265.94977976985047 L557.5896541040788,265.3313188571817 M557.5896541040788,265.3313188571817 L559.0552467382032,264.5094585383888 M559.0552467382032,264.5094585383888 L560.1582400776576,263.5254968299949 M560.1582400776576,263.5254968299949 L560.8433920558218,262.4288522319024 M560.8433920558218,262.4288522319024 L561.0764688871747,261.2745691957608 M672.7882973106089,151.44415553568362 L672.5654620376704,198.76777501989403 M561.0519745531828,213.797811719667 L672.7882973106089,151.44415553568362 M561.0764688871747,261.2745691957608 L672.5654620376704,198.76777501989403 M713.3943125897852,173.85424364560885 L713.0809568240761,221.23309819725824 M672.7882973106089,151.44415553568362 L713.3943125897852,173.85424364560885 M672.5654620376704,198.76777501989403 L713.0809568240761,221.23309819725824 M673.2369374689005,196.36414821244128 L673.0121150393526,243.79826152424138 M713.3943125897852,173.85424364560885 L673.2369374689005,196.36414821244128 M713.0809568240761,221.23309819725824 L673.0121150393526,243.79826152424138 M664.0334568457681,201.5230877568156 L663.8289806877867,248.96983417937412 M673.2369374689005,196.36414821244128 L671.1798203807679,196.49342845667505 M671.1798203807679,196.49342845667505 L669.2282819564676,196.87480994891968 M669.2282819564676,196.87480994891968 L667.4800718330373,197.48921663079443 M667.4800718330373,197.48921663079443 L666.0227770588233,198.30592245863454 M666.0227770588233,198.30592245863454 L664.9294706515977,199.28406229659214 M664.9294706515977,199.28406229659214 L664.2550496841341,200.37466261351065 M664.2550496841341,200.37466261351065 L664.0334568457681,201.5230877568156 M673.0121150393526,243.79826152424138 L670.9595660570283,243.92785849039177 M670.9595660570283,243.92785849039177 L669.0123558921725,244.31017428115874 M669.0123558921725,244.31017428115874 L667.2680176527908,244.92608598611878 M667.2680176527908,244.92608598611878 L665.8139445484763,245.74479212298058 M665.8139445484763,245.74479212298058 L664.7230480497083,246.72532727466677 M664.7230480497083,246.72532727466677 L664.0501040695959,247.81859780762176 M664.0501040695959,247.81859780762176 L663.8289806877867,248.96983417937412 M601.6597802978099,236.48616744891496 L601.593742242268,284.0182223449706 M664.0334568457681,201.5230877568156 L601.6597802978099,236.48616744891496 M663.8289806877867,248.96983417937412 L601.593742242268,284.0182223449706 M592.3832324277544,241.6860642707571 L592.3378651670287,289.230760782178 M601.6597802978099,236.48616744891496 L599.5935958587711,236.61647540590212 M599.5935958587711,236.61647540590212 L597.631624726578,237.00088254978203 M597.631624726578,237.00088254978203 L595.8721263333974,237.6201684766649 M595.8721263333974,237.6201684766649 L594.403262165911,238.4433580928762 M594.403262165911,238.4433580928762 L593.2986866321542,239.429261126084 M593.2986866321542,239.429261126084 L592.6138562256401,240.52851885928254 M592.6138562256401,240.52851885928254 L592.3832324277544,241.6860642707571 M601.593742242268,284.0182223449706 L599.5321662183271,284.14884724254307 M599.5321662183271,284.14884724254307 L597.5745697141074,284.5341893144133 M597.5745697141074,284.5341893144133 L595.8189933431048,285.1549812882605 M595.8189933431048,285.1549812882605 L594.3534022253579,285.98017256555545 M594.3534022253579,285.98017256555545 L593.2512866451552,286.96847252029374 M593.2512866451552,286.96847252029374 L592.5679794394431,288.0704022583202 M592.5679794394431,288.0704022583202 L592.3378651670287,289.230760782178 M595.1130393044189,245.36615710259863 L595.0615607729861,292.91979320604037 M592.3832324277544,241.6860642707571 L592.5638163868975,242.70113444951932 M592.5638163868975,242.70113444951932 L593.0946375903668,243.6773864634365 M593.0946375903668,243.6773864634365 L593.9553851385933,244.5772712310902 M593.9553851385933,244.5772712310902 L595.1130393044189,245.36615710259863 M592.3378651670287,289.230760782178 L592.5180415222587,290.2482973395207 M592.5180415222587,290.2482973395207 L593.0476733643292,291.22692098569894 M593.0476733643292,291.22692098569894 L593.9064951079235,292.12899149363864 M593.9064951079235,292.12899149363864 L595.0615607729861,292.91979320604037 M601.6900670050395,246.89128143689172 L601.6238939076961,294.44862058983375 M595.1130393044189,245.36615710259863 L596.523135172339,246.0136714191489 M596.523135172339,246.0136714191489 L598.1314601441945,246.4948707875433 M598.1314601441945,246.4948707875433 L599.876147576157,246.79121368505758 M599.876147576157,246.79121368505758 L601.6900670050395,246.89128143689172 M595.0615607729861,292.91979320604037 L596.4685048216224,293.56887983251085 M596.4685048216224,293.56887983251085 L598.0732358769247,294.0512475414286 M598.0732358769247,294.0512475414286 L599.8140256715087,294.34830990172753 M599.8140256715087,294.34830990172753 L601.6238939076961,294.44862058983375 M633.1731320099582,264.4994369322204 L633.0364199592681,312.0994551628111 M601.6900670050395,246.89128143689172 L633.1731320099582,264.4994369322204 M601.6238939076961,294.44862058983375 L633.0364199592681,312.0994551628111 M484.740324016624,348.0766218071898 L484.93723971926374,395.8773571332854 M633.1731320099582,264.4994369322204 L484.740324016624,348.0766218071898 M633.0364199592681,312.0994551628111 L484.93723971926374,395.8773571332854 M142.72408195757635,470.4389084280933 L143.7038085217328,518.5279661951142 M484.740324016624,348.0766218071898 L489.3172358370308,356.3535893393594 M489.3172358370308,356.3535893393594 L492.7895055232052,364.81812471793035 M492.7895055232052,364.81812471793035 L495.1350001573123,373.42336551215055 M495.1350001573123,373.42336551215055 L496.33771789618925,382.12145208679584 M496.33771789618925,382.12145208679584 L496.38805380837573,390.8637089614548 M496.38805380837573,390.8637089614548 L495.2827742733972,399.6010269548423 M495.2827742733972,399.6010269548423 L493.02518516640765,408.2840364255726 M493.02518516640765,408.2840364255726 L489.6251717512245,416.86345034520684 M489.6251717512245,416.86345034520684 L485.0992135791237,425.29029273706203 M485.0992135791237,425.29029273706203 L479.4702908567078,433.5162567280513 M479.4702908567078,433.5162567280513 L472.76788959293094,441.4939470553667 M472.76788959293094,441.4939470553667 L465.02783924244943,449.17720155004145 M465.02783924244943,449.17720155004145 L456.2921898849861,456.52133629762966 M456.2921898849861,456.52133629762966 L446.60898222962135,463.48348691222066 M446.60898222962135,463.48348691222066 L436.03199140467075,470.02281672594177 M436.03199140467075,470.02281672594177 L424.62048864060125,476.1008742922821 M424.62048864060125,476.1008742922821 L412.4389607805032,481.68173283922226 M412.4389607805032,481.68173283922226 L399.55647666560435,486.7323596433614 M399.55647666560435,486.7323596433614 L386.0467012458715,491.22271873136174 M386.0467012458715,491.22271873136174 L371.98710867152073,495.12604636137473 M371.98710867152073,495.12604636137473 L357.45870499960495,498.4190549824971 M357.45870499960495,498.4190549824971 L342.5454288161501,501.0820273559914 M342.5454288161501,501.0820273559914 L327.33369267599653,503.0989933478254 M327.33369267599653,503.0989933478254 L311.9117800630661,504.457859693355 M311.9117800630661,504.457859693355 L296.3693656766296,505.1504595891213 M296.3693656766296,505.1504595891213 L280.7968934711667,505.1726276634405 M280.7968934711667,505.1726276634405 L265.28499308856885,504.52421692743496 M265.28499308856885,504.52421692743496 L249.92390215106548,503.2091497915246 M249.92390215106548,503.2091497915246 L234.8029018734553,501.23531852884514 M234.8029018734553,501.23531852884514 L220.00982609709328,498.61455693107825 M220.00982609709328,498.61455693107825 L205.63030643152487,495.36259805242605 M205.63030643152487,495.36259805242605 L191.7474386050569,491.49889184998676 M191.7474386050569,491.49889184998676 L178.44113858491895,487.04653122505965 M178.44113858491895,487.04653122505965 L165.78776709866648,482.03202351639334 M165.78776709866648,482.03202351639334 L153.8594956076301,476.4852007199328 M153.8594956076301,476.4852007199328 L142.72408195757635,470.4389084280933 M484.93723971926374,395.8773571332854 L489.5039795564689,404.17403529382335 M489.5039795564689,404.17403529382335 L492.96855912218365,412.65869681657733 M492.96855912218365,412.65869681657733 L495.3089004578343,421.2843660167566 M495.3089004578343,421.2843660167566 L496.5090432828811,430.00306831988553 M496.5090432828811,430.00306831988553 L496.5594100632171,438.7660120932162 M496.5594100632171,438.7660120932162 L495.45678029461936,447.5239717222785 M495.45678029461936,447.5239717222785 L493.204458124424,456.2274612724485 M493.204458124424,456.2274612724485 L489.81231197325053,464.8270783677657 M489.81231197325053,464.8270783677657 L485.2967892203054,473.2737331477133 M485.2967892203054,473.2737331477133 L479.6808226140881,481.51900712549366 M479.6808226140881,481.51900712549366 L472.9938352477626,489.5153962128229 M472.9938352477626,489.5153962128229 L465.27157842878046,497.21663289216565 M465.27157842878046,497.21663289216565 L456.5560090129579,504.57793187340906 M456.5560090129579,504.57793187340906 L446.89505983284596,511.5563320768217 M446.89505983284596,511.5563320768217 L436.3423839946675,518.1109052103919 M436.3423839946675,518.1109052103919 L424.9571170599246,524.2031140019261 M424.9571170599246,524.2031140019261 L412.80359717448937,529.7969518675114 M412.80359717448937,529.7969518675114 L399.9507329176389,534.8593130341851 M399.9507329176389,534.8593130341851 L386.4720174195951,539.360095369772 M386.4720174195951,539.360095369772 L372.4447433260477,543.2724763979513 M372.4447433260477,543.2724763979513 L357.94972624106225,546.5731176307017 M357.94972624106225,546.5731176307017 L343.0707068440623,549.2422588165575 M343.0707068440623,549.2422588165575 L327.8938935302503,551.2638950629806 M327.8938935302503,551.2638950629806 L312.5073609211883,552.6259068347791 M312.5073609211883,552.6259068347791 L297.0005714316672,553.3201096089134 M297.0005714316672,553.3201096089134 L281.4637549291537,553.3423289831454 M281.4637549291537,553.3423289831454 L265.98732670181704,552.6924176480073 M265.98732670181704,552.6924176480073 L250.66131127853635,551.3743065207678 M250.66131127853635,551.3743065207678 L235.57477952500435,549.3959049956318 M235.57477952500435,549.3959049956318 L220.81535898998442,546.7690725682985 M220.81535898998442,546.7690725682985 L206.4684809500834,543.5095765329299 M206.4684809500834,543.5095765329299 L192.61704767151681,539.6369092659589 M192.61704767151681,539.6369092659589 L179.34079013836597,535.1742141752056 M179.34079013836597,535.1742141752056 L166.71589353095695,530.1480567536998 M166.71589353095695,530.1480567536998 L154.81436473147386,524.5883346908053 M154.81436473147386,524.5883346908053 L143.7038085217328,518.5279661951142 M142.72408195757635,470.4389084280933 L132.4442808059946,463.92888487613334 M132.4442808059946,463.92888487613334 L123.07766867819578,456.99342367414795 M123.07766867819578,456.99342367414795 L114.676154452189,449.67322049338975 M114.676154452189,449.67322049338975 L107.28588846671016,442.0109971636173 M107.28588846671016,442.0109971636173 L100.94684096289336,434.0513400805919 M100.94684096289336,434.0513400805919 L95.69278135828642,425.8403209361321 M95.69278135828642,425.8403209361321 L91.55101344394359,417.4252728631452 M91.55101344394359,417.4252728631452 L88.54238532372779,408.854428834182 M88.54238532372779,408.854428834182 L86.68110106639767,400.1767445673736 M86.68110106639767,400.1767445673736 L85.97477981909003,391.441496817735 M85.97477981909003,391.441496817735 L86.42452319775703,382.6980410103257 M86.42452319775703,382.6980410103257 L88.02485130333343,373.9955353604305 M88.02485130333343,373.9955353604305 L90.76388527999717,365.382667935119 M90.76388527999717,365.382667935119 L94.62345641508568,356.90738659969185 M94.62345641508568,356.90738659969185 L99.57929964535475,348.6166137356625 M99.57929964535475,348.6166137356625 L105.60118249483855,340.55604394784837 M105.60118249483855,340.55604394784837 L112.65315698504986,332.76987608671755 M112.65315698504986,332.76987608671755 L120.69387048565824,325.30062684425377 M120.69387048565824,325.30062684425377 L129.6767204492392,318.1888641629049 M129.6767204492392,318.1888641629049 L139.550172672207,311.4731183400319 M139.550172672207,311.4731183400319 L150.25819869261662,305.1895065826044 M150.25819869261662,305.1895065826044 L161.74038282102345,299.37179554680876 M161.74038282102345,299.37179554680876 L173.93248999875078,294.05109986273567 M173.93248999875078,294.05109986273567 L186.76661932142795,289.2557674505181 M186.76661932142795,289.2557674505181 L200.17172332985703,285.01128123734713 M200.17172332985703,285.01128123734713 L214.0738647634738,281.34014098316453 M214.0738647634738,281.34014098316453 L228.39669846060042,278.2617510054607 M228.39669846060042,278.2617510054607 L243.06178445262984,275.7923571190189 M243.06178445262984,275.7923571190189 L257.9890351598541,273.94495246919496 M257.9890351598541,273.94495246919496 L273.09702692695765,272.7292664520363 M273.09702692695765,272.7292664520363 L288.3035200930327,272.1516904804855 M288.3035200930327,272.1516904804855 L303.5257610885204,272.21525500539775 M303.5257610885204,272.21525500539775 L318.68099403932774,272.9196133453305 M318.68099403932774,272.9196133453305 L333.6866872646697,274.261089568412 M333.6866872646697,274.261089568412 L348.461140714248,276.23261395677764 M348.461140714248,276.23261395677764 L362.9237543961517,278.82381534803983 M143.7038085217328,518.5279661951142 L133.44683937782156,512.0027688697487 M133.44683937782156,512.0027688697487 L124.10090689560468,505.0511217706237 M124.10090689560468,505.0511217706237 L115.71780734893332,497.7138118454451 M115.71780734893332,497.7138118454451 L108.34359291042097,490.0336572596244 M108.34359291042097,490.0336572596244 L102.01815095209503,482.0553455254508 M102.01815095209503,482.0553455254508 L96.77518321783043,473.82505343514447 M96.77518321783043,473.82505343514447 L92.64194146727698,465.39022276065225 M92.64194146727698,465.39022276065225 L89.63923720364312,456.79919787013023 M89.63923720364312,456.79919787013023 L87.78125356856435,448.1010482706007 M87.78125356856435,448.1010482706007 L87.0756041013384,439.34516599137964 M87.0756041013384,439.34516599137964 L87.52339976684709,430.58102266722756 M87.52339976684709,430.58102266722756 L89.1191849005595,421.8578930128465 M89.1191849005595,421.8578930128465 L91.85111913926357,413.2245812287525 M91.85111913926357,413.2245812287525 L95.7010860664742,404.7291502822645 M95.7010860664742,404.7291502822645 L100.64488608201674,396.4186359077895 M100.64488608201674,396.4186359077895 L106.65236487147382,388.3388437789177 M106.65236487147382,388.3388437789177 L113.68766458055381,380.53408082641135 M113.68766458055381,380.53408082641135 L121.70953382599527,373.0469683125739 M121.70953382599527,373.0469683125739 L130.67148195648764,365.918174517447 M130.67148195648764,365.918174517447 L140.52209651302934,359.1863255379971 M140.52209651302934,359.1863255379971 L151.20547955670312,352.8876288454512 M151.20547955670312,352.8876288454512 L162.6613544405617,347.0559358740909 M162.6613544405617,347.0559358740909 L174.82563236500175,341.72243972133117 M174.82563236500175,341.72243972133117 L187.6305655734671,336.9155600879635 M187.6305655734671,336.9155600879635 L201.00526552086538,332.66084466229984 M201.00526552086538,332.66084466229984 L214.8759591159104,328.98085057041817 M214.8759591159104,328.98085057041817 L229.1664696283256,325.89503174663065 M229.1664696283256,325.89503174663065 L243.7985291924814,323.41967564633217 M243.7985291924814,323.41967564633217 L258.69222512728334,321.56780878759844 M258.69222512728334,321.56780878759844 L273.76631092026616,320.34918559179573 M273.76631092026616,320.34918559179573 L288.9387252860994,319.77021393038325 M288.9387252860994,319.77021393038325 L304.1268937520276,319.8339320636803 M304.1268937520276,319.8339320636803 L319.2482392864984,320.5399924188132 M319.2482392864984,320.5399924188132 L334.2204084643811,321.8847095886974 M334.2204084643811,321.8847095886974 L348.9618777099256,323.86099565609237 M348.9618777099256,323.86099565609237 L363.3922212921501,326.458452787607 M312.3972511199155,375.5424443916693 L312.98439548894413,423.40847048600574 M270.1020159168594,399.19773583329214 L270.78636176845754,447.1197285772013 M312.3972511199155,375.5424443916693 L307.9924390452952,373.46742882656804 M307.9924390452952,373.46742882656804 L302.94763697569215,371.92609905092695 M302.94763697569215,371.92609905092695 L297.45616632038355,370.97717503263186 M297.45616632038355,370.97717503263186 L291.72816251543776,370.65680479141866 M291.72816251543776,370.65680479141866 L285.9827140015551,370.9771851521739 M285.9827140015551,370.9771851521739 L280.43960945923845,371.92610326817953 M280.43960945923845,371.92610326817953 L275.3109562804403,373.4674369823616 M275.3109562804403,373.4674369823616 L270.7932584220472,375.5424443916693 M270.7932584220472,375.5424443916693 L267.0598607204533,378.0719974270758 M267.0598607204533,378.0719974270758 L264.2544746970182,380.95944708802006 M264.2544746970182,380.95944708802006 L262.48546342332713,384.0943407221291 M262.48546342332713,384.0943407221291 L261.82167423474164,387.35654554307587 M261.82167423474164,387.35654554307587 L262.28966761899164,390.6208058728944 M262.28966761899164,390.6208058728944 L263.8724670064122,393.7615815214706 M263.8724670064122,393.7615815214706 L266.51016121246386,396.6578304662762 M266.51016121246386,396.6578304662762 L270.1020159168594,399.19773583329214 M312.98439548894413,423.40847048600574 L308.5894237117558,421.32853385146313 M308.5894237117558,421.32853385146313 L303.55593593846083,419.78354746052355 M303.55593593846083,419.78354746052355 L298.0768212822596,418.83237171720043 M298.0768212822596,418.83237171720043 L292.36174432023995,418.51124117220013 M292.36174432023995,418.51124117220013 L286.62930138508426,418.8323818607573 M286.62930138508426,418.8323818607573 L281.0987859834398,419.7835516877824 M281.0987859834398,419.7835516877824 L275.9818257980537,421.32854202660246 M275.9818257980537,421.32854202660246 L271.4744781491413,423.40847048600574 M271.4744781491413,423.40847048600574 L267.7496912742489,425.9440200030143 M267.7496912742489,425.9440200030143 L264.950844860947,428.83831112570306 M264.950844860947,428.83831112570306 L263.1860481611372,431.98062835942756 M263.1860481611372,431.98062835942756 L262.52398265074635,435.25055367191214 M262.52398265074635,435.25055367191214 L262.99113786807226,438.52253467428307 M262.99113786807226,438.52253467428307 L264.5705648066904,441.6707345051607 M264.5705648066904,441.6707345051607 L267.2024777687213,444.5738257747756 M267.2024777687213,444.5738257747756 L270.78636176845754,447.1197285772013 M270.1020159168594,399.19773583329214 L274.5101628024736,401.2831339419025 M274.5101628024736,401.2831339419025 L279.5650721719555,402.83325792337405 M279.5650721719555,402.83325792337405 L285.0718837595332,403.7880490379274 M285.0718837595332,403.7880490379274 L290.8180806850855,404.1104917441321 M290.8180806850855,404.1104917441321 L296.58183463043054,403.7880569588822 M296.58183463043054,403.7880569588822 L302.14058367028485,402.83326273163686 M302.14058367028485,402.83326273163686 L307.27982258543636,401.2831347901649 M307.27982258543636,401.2831347901649 L311.80146810246595,399.19773583329214 M311.80146810246595,399.19773583329214 L315.5314824970868,396.6578273587637 M315.5314824970868,396.6578273587637 L318.32676123711,393.76158349787 M318.32676123711,393.76158349787 L320.0804477356485,390.6208137736844 M320.0804477356485,390.6208137736844 L320.72604380308826,387.3565365193101 M320.72604380308826,387.3565365193101 L320.239745076628,384.09433057680883 M320.239745076628,384.09433057680883 L318.64128507094443,380.9594400469391 M318.64128507094443,380.9594400469391 L315.9930050753808,378.0719853231959 M315.9930050753808,378.0719853231959 L312.3972511199155,375.5424443916693 M270.78636176845754,447.1197285772013 L275.1846538752176,449.2100487804047 M275.1846538752176,449.2100487804047 L280.22820377759103,450.7638302281166 M280.22820377759103,450.7638302281166 L285.72259038321863,451.72087361491253 M285.72259038321863,451.72087361491253 L291.4557782784892,452.0440768459056 M291.4557782784892,452.0440768459056 L297.20644369682736,451.7208815545506 M297.20644369682736,451.7208815545506 L302.7525324839356,450.76383504772275 M302.7525324839356,450.76383504772275 L307.8800299928907,449.210049630669 M307.8800299928907,449.210049630669 L312.3913068831894,447.1197285772013 M312.3913068831894,447.1197285772013 L316.11272504439216,444.5738226599235 M316.11272504439216,444.5738226599235 L318.90150934509427,441.67073648623057 M318.90150934509427,441.67073648623057 L320.65105021533407,438.52254259375457 M320.65105021533407,438.52254259375457 L321.2950047917409,435.2505446267969 M321.2950047917409,435.2505446267969 L320.80962717987813,431.98061819008956 M320.80962717987813,431.98061819008956 L319.21461077200195,428.83830406794357 M319.21461077200195,428.83830406794357 L316.5721604335629,425.9440078704481 M316.5721604335629,425.9440078704481 L312.98439548894413,423.40847048600574" stroke="black"  stroke-width="4"  fill="red"/></svg>