<svg viewBox="0 0 800 800" xmlns="http://www.w3.org/2000/svg"><path d="M561.0677472507164,495.9486095150074 L561.0440622123348,449.4278927544367 M542.3958924664859,449.4278927544368 L542.6632613878002,450.7028981102656 M542.6632613878002,450.7028981102656 L543.4571637368354,451.9040913734006 M543.4571637368354,451.9040913734006 L544.7316055256974,452.961588375841 M544.7316055256974,452.961588375841 L546.412590943569,453.81382714691654 M546.412590943569,453.81382714691654 L548.402406180596,454.4111691956257 M548.402406180596,454.4111691956257 L550.5852949612479,454.71880433880665 M550.5852949612479,454.71880433880665 L552.8342275592704,454.7188047883013 M552.8342275592704,454.7188047883013 L555.0183046932499,454.41116850413624 M555.0183046932499,454.41116850413624 L557.0104254661053,453.8138276309035 M557.0104254661053,453.8138276309035 L558.6947026367204,452.9615887906191 M558.6947026367204,452.9615887906191 L559.9732284167703,451.9040915116319 M559.9732284167703,451.9040915116319 L560.7717677026221,450.7028979720662 M560.7717677026221,450.7028979720662 L561.0440622123348,449.4278927544367 M542.4606276680693,495.9486095150074 L542.3958924664859,449.4278927544368 M561.0677472507164,495.9486095150074 L560.7960551121878,497.2264973315732 M560.7960551121878,497.2264973315732 L559.9992768642392,498.4304059618782 M559.9992768642392,498.4304059618782 L558.7235690950367,499.4902930243886 M558.7235690950367,499.4902930243886 L557.0430034378323,500.34445745004115 M557.0430034378323,500.34445745004115 L555.0552718768815,500.94314779747367 M555.0552718768815,500.94314779747367 L552.8760060761265,501.25147901475725 M552.8760060761265,501.25147901475725 L550.6320265595737,501.25147856424724 M550.6320265595737,501.25147856424724 L548.4539438844251,500.94314849052523 M548.4539438844251,500.94314849052523 L546.4685077131919,500.3444569649607 M546.4685077131919,500.3444569649607 L544.7912193287982,499.4902926086733 M544.7912193287982,499.4902926086733 L543.5195775863085,498.4304058233345 M543.5195775863085,498.4304058233345 L542.7274158762411,497.226497470085 M542.7274158762411,497.226497470085 L542.4606276680693,495.9486095150074 M622.4472557358865,460.745021099283 L622.5586060558395,414.30398548373216 M622.4472557358865,460.745021099283 L561.0677472507164,495.9486095150074 M622.5586060558395,414.30398548373216 L561.0440622123348,449.4278927544367 M671.6125217276342,386.29491514575864 L631.8205692571421,409.0155395927109 M631.8205692571421,409.0155395927109 L631.5944901026819,410.1918628927466 M631.5944901026819,410.1918628927466 L630.9138660549047,411.309447921893 M630.9138660549047,411.309447921893 L629.8127012424044,412.31219853384516 M629.8127012424044,412.31219853384516 L628.3461489234944,413.14975226624586 M628.3461489234944,413.14975226624586 L626.5877437229562,413.7800240847156 M626.5877437229562,413.7800240847156 L624.6257273408388,414.17132693489594 M624.6257273408388,414.17132693489594 L622.5586060558395,414.30398548373216 M542.3958924664859,449.4278927544368 L511.65453361791776,431.83623828208334 M440.53386889912935,541.3751475190853 L511.65453361791776,431.83623828208334 M632.3528203779529,500.905486864973 L440.53386889912935,541.3751475190853 M632.3528203779529,500.905486864973 L601.3067031844162,483.1394353033867 M601.3067031844162,483.1394353033867 L599.0676657295115,482.98363829170006 M599.0676657295115,482.98363829170006 L596.9580618248965,482.52532719917855 M596.9580618248965,482.52532719917855 L595.100643455075,481.79121317591233 M595.100643455075,481.79121317591233 L593.603426395711,480.8240653377393 M593.603426395711,480.8240653377393 L592.5533974304823,479.6802013286988 M592.5533974304823,479.6802013286988 L592.0114739271272,478.42619362522845 M592.0114739271272,478.42619362522845 L592.008971680929,477.1349700085656 M592.008971680929,477.1349700085656 L592.5458432065602,475.88157384632444 M592.5458432065602,475.88157384632444 L593.5907108976922,474.73879387980435 M593.5907108976922,474.73879387980435 L595.0827402894043,473.7729524069383 M595.0827402894043,473.7729524069383 L596.9351969145714,473.0400690080919 M596.9351969145714,473.0400690080919 L599.0404923399606,472.5826317168046 M599.0404923399606,472.5826317168046 L601.2764183532081,472.4271485025282 M601.2764183532081,472.4271485025282 L711.8431430126875,409.0155352057028 M711.8431430126875,409.0155352057028 L671.6125217276342,386.29491514575864 M511.78671625622536,478.31711250852794 L511.65453361791776,431.83623828208334 M542.4606276680693,495.9486095150074 L511.78671625622536,478.31711250852794 M631.6889663178374,455.44453265267305 L631.4633680500231,456.62353563685923 M631.4633680500231,456.62353563685923 L630.7842226697577,457.7436659996315 M630.7842226697577,457.7436659996315 L629.6854607021439,458.74869995538813 M629.6854607021439,458.74869995538813 L628.2221152070224,459.58816053808135 M628.2221152070224,459.58816053808135 L626.467560017713,460.2198670939374 M626.467560017713,460.2198670939374 L624.5098434834646,460.6120606128303 M624.5098434834646,460.6120606128303 L622.4472557358865,460.745021099283 M671.3941432880488,432.67203507930907 L631.6889663178374,455.44453265267305 M711.536069471,455.44452825567026 L671.3941432880488,432.67203507930907 M601.2113968884928,518.9997572181657 L711.536069471,455.44452825567026 M601.2113968884928,518.9997572181657 L598.9804027771818,519.1555904770727 M598.9804027771818,519.1555904770727 L596.8797495984747,519.6140575529731 M596.8797495984747,519.6140575529731 L595.0313764143798,520.3485906367575 M595.0313764143798,520.3485906367575 L593.5426346493504,521.3166058238855 M593.5426346493504,521.3166058238855 L592.5000676016821,522.4619572097868 M592.5000676016821,522.4619572097868 L591.9643755411677,523.7181730567665 M591.9643755411677,523.7181730567665 L591.966866754957,525.0123007592804 M591.966866754957,525.0123007592804 L592.5075885111032,526.2691281694854 M592.5075885111032,526.2691281694854 L593.5552940777554,527.4155636392338 M593.5552940777554,527.4155636392338 L595.0492006341264,528.3848852387284 M595.0492006341264,528.3848852387284 L596.9025136820142,529.1206489916617 M596.9025136820142,529.1206489916617 L599.0074563397874,529.579989902836 M599.0074563397874,529.579989902836 L601.2415481727728,529.7361369679493 M632.2188754997144,547.5420387553168 L601.2415481727728,529.7361369679493 M632.2188754997144,547.5420387553168 L440.8253812617231,588.1019752184816 M440.8253812617231,588.1019752184816 L511.78671625622536,478.31711250852794 M631.6889663178374,455.44453265267305 L631.8205692571421,409.0155395927109 M671.3941432880488,432.67203507930907 L671.6125217276342,386.29491514575864 M711.536069471,455.44452825567026 L711.8431430126875,409.0155352057028 M601.2113968884928,518.9997572181657 L601.2764183532081,472.4271485025282 M601.2415481727728,529.7361369679493 L601.3067031844162,483.1394353033867 M632.2188754997144,547.5420387553168 L632.3528203779529,500.905486864973 M440.8253812617231,588.1019752184816 L440.53386889912935,541.3751475190853" stroke="black"  stroke-width="4"  fill="red"/>
<path d="M561.0202724326307,402.70144943684886 L560.9963772291164,355.7679390615641 M542.2655613709053,355.7679390615641 L542.5340993344116,357.0370647387138 M542.5340993344116,357.0370647387138 L543.3315060107952,358.2327199685592 M543.3315060107952,358.2327199685592 L544.6115850486249,359.2853424541262 M544.6115850486249,359.2853424541262 L546.3000136432686,360.1336535333594 M546.3000136432686,360.1336535333594 L548.2986452192614,360.7282429936963 M548.2986452192614,360.7282429936963 L550.4912101231986,361.03446065355723 M550.4912101231986,361.03446065355723 L552.7501147719234,361.0344611009808 M552.7501147719234,361.0344611009808 L554.943878589127,360.7282423053931 M554.943878589127,360.7282423053931 L556.9448361959986,360.1336540151161 M556.9448361959986,360.1336540151161 L558.6365857926626,359.28534286699244 M558.6365857926626,359.28534286699244 L559.9207851096605,358.2327201061533 M559.9207851096605,358.2327201061533 L560.722869928402,357.03706460115166 M560.722869928402,357.03706460115166 L560.9963772291164,355.7679390615641 M542.3308709892158,402.70144943684886 L542.2655613709053,355.7679390615641 M561.0202724326307,402.70144943684886 L560.7473728747004,403.97353403530155 M560.7473728747004,403.97353403530155 L559.9470647488959,405.1719766648406 M559.9470647488959,405.1719766648406 L558.6657084800522,406.22705262593433 M558.6657084800522,406.22705262593433 L556.9777033653437,407.0773404672018 M556.9777033653437,407.0773404672018 L554.9811739527515,407.6733140535847 M554.9811739527515,407.6733140535847 L552.7922641929051,407.9802462309376 M552.7922641929051,407.9802462309376 L550.5383565984495,407.9802457824717 M550.5383565984495,407.9802457824717 L548.3506404543823,407.6733147434914 M548.3506404543823,407.6733147434914 L546.3564267911412,407.07733998432263 M546.3564267911412,407.07733998432263 L544.6717280052978,406.22705221210583 M544.6717280052978,406.22705221210583 L543.3944738114442,405.17197652692596 M543.3944738114442,405.17197652692596 L542.5988231568849,403.97353417318436 M542.5988231568849,403.97353417318436 L542.3308709892158,402.70144943684886 M622.6704471291921,367.65827065288573 L622.7827821423787,320.80654763606367 M622.6704471291921,367.65827065288573 L561.0202724326307,402.70144943684886 M622.7827821423787,320.80654763606367 L560.9963772291164,355.7679390615641 M672.0521643764416,292.92782318210317 L632.0855180460869,315.5426616450568 M632.0855180460869,315.5426616450568 L631.8584709476294,316.713519968903 M631.8584709476294,316.713519968903 L631.1748701655665,317.82591399595077 M631.1748701655665,317.82591399595077 L630.0688679974514,318.8240078947855 M630.0688679974514,318.8240078947855 L628.5958596805352,319.6576727320178 M628.5958596805352,319.6576727320178 L626.8297035459428,320.28501849052907 M626.8297035459428,320.28501849052907 L624.8590305540904,320.6745048724431 M624.8590305540904,320.6745048724431 L622.7827821423787,320.80654763606367 M542.2655613709053,355.7679390615641 L511.38841388101326,338.2575491395146 M439.94693393342703,447.29471549519764 L511.38841388101326,338.2575491395146 M632.6224998624632,407.0092405991417 L439.94693393342703,447.29471549519764 M632.6224998624632,407.0092405991417 L601.4378823016896,389.32448480238645 M601.4378823016896,389.32448480238645 L599.1888876219141,389.1694018872264 M599.1888876219141,389.1694018872264 L597.069899016114,388.7131915856813 M597.069899016114,388.7131915856813 L595.2042151968363,387.9824429408476 M595.2042151968363,387.9824429408476 L593.7003329190948,387.0197294693395 M593.7003329190948,387.0197294693395 L592.6456261048428,385.88111109357897 M592.6456261048428,385.88111109357897 L592.1012830106453,384.63285540540744 M592.1012830106453,384.63285540540744 L592.0987584786067,383.34755590374743 M592.0987584786067,383.34755590374743 L592.6380045844446,382.0999116573565 M592.6380045844446,382.0999116573565 L593.6875041585063,380.9623771431583 M593.6875041585063,380.9623771431583 L595.1861525576467,380.00096982437174 M595.1861525576467,380.00096982437174 L597.0468304321557,379.27145160290195 M597.0468304321557,379.27145160290195 L599.1614721777347,378.8161149552729 M599.1614721777347,378.8161149552729 L601.4073277010118,378.66134579147365 M601.4073277010118,378.66134579147365 L712.4613568870645,315.54265727843216 M712.4613568870645,315.54265727843216 L672.0521643764416,292.92782318210317 M511.5217674247424,385.1501620657126 L511.38841388101326,338.2575491395146 M542.3308709892158,402.70144943684886 L511.5217674247424,385.1501620657126 M671.831860018877,339.71395111697467 L631.9527519125394,362.38202500311934 M631.9527519125394,362.38202500311934 L631.7261898188233,363.5556335447493 M631.7261898188233,363.5556335447493 L631.0440806509339,364.67063991730174 M631.0440806509339,364.67063991730174 L629.940502460933,365.67107728640747 M629.940502460933,365.67107728640747 L628.4707292318062,366.50669919509244 M628.4707292318062,366.50669919509244 L626.7084570860804,367.1355174832617 M626.7084570860804,367.1355174832617 L624.7421219256871,367.525917997175 M624.7421219256871,367.525917997175 L622.6704471291921,367.65827065288573 M440.24105597391014,494.43985124850104 L511.5217674247424,385.1501620657126 M632.4873605325903,454.06167330825207 L440.24105597391014,494.43985124850104 M632.4873605325903,454.06167330825207 L601.3721472640798,436.3360017856457 M601.3417279966839,425.6481273858518 L599.1008482270156,425.80325591885446 M599.1008482270156,425.80325591885446 L596.9908899907468,426.25964978434877 M596.9908899907468,426.25964978434877 L595.1343318414413,426.9908616430134 M595.1343318414413,426.9908616430134 L593.6390002700002,427.95450059931596 M593.6390002700002,427.95450059931596 L592.5918217588458,429.0946750676263 M592.5918217588458,429.0946750676263 L592.053765562722,430.3452141675482 M592.053765562722,430.3452141675482 L592.0562789147875,431.6334951926526 M592.0562789147875,431.6334951926526 L592.5994095191088,432.88464579343105 M592.5994095191088,432.88464579343105 L593.6517722109836,434.0259042303595 M593.6517722109836,434.0259042303595 L595.1523144787158,434.99084946565284 M595.1523144787158,434.99084946565284 L597.01385639924,435.7232918670276 M597.01385639924,435.7232918670276 L599.1281422414149,436.18055947345874 M599.1281422414149,436.18055947345874 L601.3721472640798,436.3360017856457 M712.1515692253311,362.3820206262368 L601.3417279966839,425.6481273858518 M712.1515692253311,362.3820206262368 L671.831860018877,339.71395111697467 M631.9527519125394,362.38202500311934 L632.0855180460869,315.5426616450568 M671.831860018877,339.71395111697467 L672.0521643764416,292.92782318210317 M712.1515692253311,362.3820206262368 L712.4613568870645,315.54265727843216 M601.3417279966839,425.6481273858518 L601.4073277010118,378.66134579147365 M601.3721472640798,436.3360017856457 L601.4378823016896,389.32448480238645 M632.4873605325903,454.06167330825207 L632.6224998624632,407.0092405991417 M440.24105597391014,494.43985124850104 L439.94693393342703,447.29471549519764" stroke="black"  stroke-width="4"  fill="red"/>
<path d="M601.473219453763,331.46538009131405 L601.4073277010118,378.66134579147365 M601.4378823016896,389.32448480238645 L599.1888876219141,389.1694018872264 M599.1888876219141,389.1694018872264 L597.069899016114,388.7131915856813 M597.069899016114,388.7131915856813 L595.2042151968363,387.9824429408476 M595.2042151968363,387.9824429408476 L593.7003329190948,387.0197294693395 M593.7003329190948,387.0197294693395 L592.6456261048428,385.88111109357897 M592.6456261048428,385.88111109357897 L592.1012830106453,384.63285540540744 M592.1012830106453,384.63285540540744 L592.0987584786067,383.34755590374743 M592.0987584786067,383.34755590374743 L592.6380045844446,382.0999116573565 M592.6380045844446,382.0999116573565 L593.6875041585063,380.9623771431583 M593.6875041585063,380.9623771431583 L595.1861525576467,380.00096982437174 M595.1861525576467,380.00096982437174 L597.0468304321557,379.27145160290195 M597.0468304321557,379.27145160290195 L599.1614721777347,378.8161149552729 M599.1614721777347,378.8161149552729 L601.4073277010118,378.66134579147365 M601.503910292922,342.1034571122833 L601.4378823016896,389.32448480238645 M601.473219453763,331.46538009131405 L599.2223660289849,331.61978514556813 M599.2223660289849,331.61978514556813 L597.1030199339033,332.0740506290559 M597.1030199339033,332.0740506290559 L595.2382040085059,332.80185286924285 M595.2382040085059,332.80185286924285 L593.736224033442,333.76099910391696 M593.736224033442,333.76099910391696 L592.6843930835332,334.89585882275276 M592.6843930835332,334.89585882275276 L592.1439517930041,336.1405700016943 M592.1439517930041,336.1405700016943 L592.1464875797908,337.4228486124952 M592.1464875797908,337.4228486124952 L592.6920485898826,338.6681711551065 M592.6920485898826,338.6681711551065 L593.7491099936784,339.80411459470815 M593.7491099936784,339.80411459470815 L595.2563471847129,340.7645668151731 M595.2563471847129,340.7645668151731 L597.1261913767428,341.49359932107376 M597.1261913767428,341.49359932107376 L599.2499037151488,341.94873834425994 M599.2499037151488,341.94873834425994 L601.503910292922,342.1034571122833 M663.3958470299536,296.4316739816958 L663.1931256588646,343.5447582672345 M663.3958470299536,296.4316739816958 L601.473219453763,331.46538009131405 M663.1931256588646,343.5447582672345 L601.4073277010118,378.66134579147365 M672.4956895599139,338.2575513324973 L670.4165008646044,338.39004647598017 M670.4165008646044,338.39004647598017 L668.4440100753966,338.78090695989795 M668.4440100753966,338.78090695989795 L666.6770039273285,339.4105907420567 M666.6770039273285,339.4105907420567 L665.2040202821531,340.2476008163736 M665.2040202821531,340.2476008163736 L664.098917548492,341.250057615982 M664.098917548492,341.250057615982 L663.4171839529747,342.367773972741 M663.4171839529747,342.367773972741 L663.1931256588646,343.5447582672345 M712.4613568870645,315.54265727843216 L672.4956895599139,338.2575513324973 M672.0521643764416,292.92782318210317 L712.4613568870645,315.54265727843216 M560.9963772291164,355.7679390615641 L672.0521643764416,292.92782318210317 M542.2655613709053,355.7679390615641 L542.5340993344116,357.0370647387138 M542.5340993344116,357.0370647387138 L543.3315060107952,358.2327199685592 M543.3315060107952,358.2327199685592 L544.6115850486249,359.2853424541262 M544.6115850486249,359.2853424541262 L546.3000136432686,360.1336535333594 M546.3000136432686,360.1336535333594 L548.2986452192614,360.7282429936963 M548.2986452192614,360.7282429936963 L550.4912101231986,361.03446065355723 M550.4912101231986,361.03446065355723 L552.7501147719234,361.0344611009808 M552.7501147719234,361.0344611009808 L554.943878589127,360.7282423053931 M554.943878589127,360.7282423053931 L556.9448361959986,360.1336540151161 M556.9448361959986,360.1336540151161 L558.6365857926626,359.28534286699244 M558.6365857926626,359.28534286699244 L559.9207851096605,358.2327201061533 M559.9207851096605,358.2327201061533 L560.722869928402,357.03706460115166 M560.722869928402,357.03706460115166 L560.9963772291164,355.7679390615641 M511.38841388101326,338.2575491395146 L542.2655613709053,355.7679390615641 M511.38841388101326,338.2575491395146 L439.94693393342703,447.29471549519764 M439.94693393342703,447.29471549519764 L632.6224998624632,407.0092405991417 M601.4378823016896,389.32448480238645 L632.6224998624632,407.0092405991417 M632.7582424839923,359.7467554939104 L632.6224998624632,407.0092405991417 M601.503910292922,342.1034571122833 L632.7582424839923,359.7467554939104 M712.7725152726755,268.496042830398 L672.7189310523183,291.156991713523 M672.7189310523183,291.156991713523 L670.6351354675287,291.2891728474289 M670.6351354675287,291.2891728474289 L668.6582796240582,291.6791070475098 M668.6582796240582,291.6791070475098 L666.8873685958281,292.30729870665095 M666.8873685958281,292.30729870665095 L665.4111357533012,293.14232563341454 M665.4111357533012,293.14232563341454 L664.303602429897,294.14240768500053 M664.303602429897,294.14240768500053 L663.6203790511709,295.2574767614719 M663.6203790511709,295.2574767614719 L663.3958470299536,296.4316739816958 M439.65149375058377,399.9382932962732 L632.7582424839923,359.7467554939104 M511.2544689770258,291.1569895257376 L439.65149375058377,399.9382932962732 M511.2544689770258,291.1569895257376 L542.1999616413003,308.6259457428933 M560.9723758809238,308.62594574289324 L560.6982581243474,309.89207335525884 M560.6982581243474,309.89207335525884 L559.8943887058938,311.08490511730116 M559.8943887058938,311.08490511730116 L558.6073336953973,312.1350424398862 M558.6073336953973,312.1350424398862 L556.9118229657186,312.9813509140972 M556.9118229657186,312.9813509140972 L554.9064174761992,313.5745356980857 M554.9064174761992,313.5745356980857 L552.7077780235006,313.8800317334705 M552.7077780235006,313.8800317334705 L550.4438541117698,313.88003128710284 M550.4438541117698,313.88003128710284 L548.2464189051764,313.57453638476426 M548.2464189051764,313.57453638476426 L546.2433497966811,312.98135043347787 M546.2433497966811,312.98135043347787 L544.5511748400861,312.1350420279947 M544.5511748400861,312.1350420279947 L543.2682584343975,311.08490498003204 M543.2682584343975,311.08490498003204 L542.4690879673296,309.892073492496 M542.4690879673296,309.892073492496 L542.1999616413003,308.6259457428933 M672.2734413678154,245.93513660114075 L560.9723758809238,308.62594574289324 M672.2734413678154,245.93513660114075 L712.7725152726755,268.496042830398 M672.7189310523183,291.156991713523 L672.4956895599139,338.2575513324973 M712.7725152726755,268.496042830398 L712.4613568870645,315.54265727843216 M672.2734413678154,245.93513660114075 L672.0521643764416,292.92782318210317 M560.9723758809238,308.62594574289324 L560.9963772291164,355.7679390615641 M542.1999616413003,308.6259457428933 L542.2655613709053,355.7679390615641 M511.2544689770258,291.1569895257376 L511.38841388101326,338.2575491395146 M439.65149375058377,399.9382932962732 L439.94693393342703,447.29471549519764" stroke="black"  stroke-width="4"  fill="red"/>
<path d="M363.27663578263946,469.0448592219388 L363.7396192856259,515.9227006407159 M511.5217674247424,385.1501620657126 L511.65453361791776,431.83623828208334 M363.27663578263946,469.0448592219388 L511.5217674247424,385.1501620657126 M363.7396192856259,515.9227006407159 L511.65453361791776,431.83623828208334 M542.3308709892158,402.70144943684886 L542.395892466486,449.4278927544367 M511.5217674247424,385.1501620657126 L542.3308709892158,402.70144943684886 M511.65453361791776,431.83623828208334 L542.395892466486,449.4278927544367 M545.0581630047311,406.460985903963 L545.1171890304109,453.19605886307494 M542.3308709892158,402.70144943684886 L542.5074930269974,403.7384305600898 M542.5074930269974,403.7384305600898 L543.0365432248811,404.73575703290453 M543.0365432248811,404.73575703290453 L543.8977786086348,405.6550682138102 M543.8977786086348,405.6550682138102 L545.0581630047311,406.460985903963 M542.395892466486,449.4278927544367 L542.5721313067995,450.467254767425 M542.5721313067995,450.467254767425 L543.1000203206819,451.4668706503995 M543.1000203206819,451.4668706503995 L543.9593607675627,452.3882917774223 M543.9593607675627,452.3882917774223 L545.1171890304109,453.19605886307494 M551.6652356924214,408.019037369588 L551.7096868879569,454.7576849115157 M545.0581630047311,406.460985903963 L546.4731236463067,407.12247917220344 M546.4731236463067,407.12247917220344 L548.0882628425505,407.6140672721244 M548.0882628425505,407.6140672721244 L549.84145397332,407.9168090414822 M549.84145397332,407.9168090414822 L551.6652356924214,408.019037369588 M545.1171890304109,453.19605886307494 L546.5290304820078,453.8590698987534 M546.5290304820078,453.8590698987534 L548.140607392801,454.35178580507784 M548.140607392801,454.35178580507784 L549.8899302964871,454.6552220763229 M549.8899302964871,454.6552220763229 L551.7096868879569,454.7576849115157 M561.0202724326307,402.70144943684886 L561.0440622123348,449.4278927544367 M551.6652356924214,408.019037369588 L553.7459268680425,407.8856472741153 M553.7459268680425,407.8856472741153 L555.7226486882488,407.4921868306054 M555.7226486882488,407.4921868306054 L557.4961545600621,406.8584407971269 M557.4961545600621,406.8584407971269 L558.9774469739709,406.0162697943481 M558.9774469739709,406.0162697943481 L560.0922476036883,405.0079936856515 M560.0922476036883,405.0079936856515 L560.7847216544471,403.88425182208334 M560.7847216544471,403.88425182208334 L561.0202724326307,402.70144943684886 M551.7096868879569,454.7576849115157 L553.7857848744184,454.62398882440584 M553.7857848744184,454.62398882440584 L555.7581422184714,454.229625753836 M555.7581422184714,454.229625753836 L557.5277317296207,453.59442572155615 M557.5277317296207,453.59442572155615 L559.0057525791769,452.7503222667049 M559.0057525791769,452.7503222667049 L560.1180904913381,451.7397321614761 M560.1180904913381,451.7397321614761 L560.8090338659795,450.6134107955469 M560.8090338659795,450.6134107955469 L561.0440622123348,449.4278927544367 M671.831860018877,339.71395111697467 L671.6125217276342,386.29491514575864 M561.0202724326307,402.70144943684886 L671.831860018877,339.71395111697467 M561.0440622123348,449.4278927544367 L671.6125217276342,386.29491514575864 M712.1515692253311,362.3820206262368 L711.8431430126875,409.0155352057028 M671.831860018877,339.71395111697467 L712.1515692253311,362.3820206262368 M671.6125217276342,386.29491514575864 L711.8431430126875,409.0155352057028 M672.2734336678776,385.1501642638256 L672.0521566933685,431.8362404852601 M712.1515692253311,362.3820206262368 L672.2734336678776,385.1501642638256 M711.8431430126875,409.0155352057028 L672.0521566933685,431.8362404852601 M662.991299751579,390.4497339481991 L662.7903632334792,437.1480127849491 M672.2734336678776,385.1501642638256 L670.1988315352535,385.2829693593576 M670.1988315352535,385.2829693593576 L668.2306865644055,385.6747441573996 M668.2306865644055,385.6747441573996 L666.4675681124663,386.30590077909864 M666.4675681124663,386.30590077909864 L664.9978193921928,387.1448683682427 M664.9978193921928,387.1448683682427 L663.8951366030951,388.14966921636926 M663.8951366030951,388.14966921636926 L663.2148863087696,389.26999862402954 M663.2148863087696,389.26999862402954 L662.991299751579,390.4497339481991 M672.0521566933685,431.8362404852601 L669.9821209343811,431.96935151997184 M669.9821209343811,431.96935151997184 L668.0183026761899,432.3620287941698 M668.0183026761899,432.3620287941698 L666.2590548525042,432.9946391841877 M666.2590548525042,432.9946391841877 L664.7925268809904,433.8355389375992 M664.7925268809904,433.8355389375992 L663.6922534629055,434.8426534727171 M663.6922534629055,434.8426534727171 L663.013480031094,435.96556207877535 M663.013480031094,435.96556207877535 L662.7903632334792,437.1480127849491 M601.3417279966839,425.6481273858518 L601.2764183532081,472.4271485025282 M662.991299751579,390.4497339481991 L601.3417279966839,425.6481273858518 M662.7903632334792,437.1480127849491 L601.2764183532081,472.4271485025282 M591.9867019524552,430.9893143227765 L591.9420536539742,477.78054145598946 M601.3417279966839,425.6481273858518 L599.2580827856968,425.78197560150954 M599.2580827856968,425.78197560150954 L597.2795278080397,426.1768263236934 M597.2795278080397,426.1768263236934 L595.5051525576355,426.8129383948851 M595.5051525576355,426.8129383948851 L594.0238616770732,427.6584945241364 M594.0238616770732,427.6584945241364 L592.9099334978522,428.6711854136175 M592.9099334978522,428.6711854136175 L592.2192956757468,429.8003132724214 M592.2192956757468,429.8003132724214 L591.9867019524552,430.9893143227765 M601.2764183532081,472.4271485025282 L599.1973793670306,472.5613027453819 M599.1973793670306,472.5613027453819 L597.2231969554613,472.95705619975604 M597.2231969554613,472.95705619975604 L595.4527418997671,473.59462244974975 M595.4527418997671,473.59462244974975 L593.9747225734045,474.44211128816096 M593.9747225734045,474.44211128816096 L592.8632532573527,475.457116509147 M592.8632532573527,475.457116509147 L592.1741380010906,476.58882427979705 M592.1741380010906,476.58882427979705 L591.9420536539742,477.78054145598946 M594.739525823318,434.7694237234948 L594.6887693879199,481.569282038176 M591.9867019524552,430.9893143227765 L592.1687945836829,432.0319700677478 M592.1687945836829,432.0319700677478 L592.7040857785166,433.03475363378334 M592.7040857785166,433.03475363378334 L593.572094991288,433.959095497273 M593.572094991288,433.959095497273 L594.739525823318,434.7694237234948 M591.9420536539742,477.78054145598946 L592.1237389521082,478.8255785221948 M592.1237389521082,478.8255785221948 L592.6578414194141,479.83065190742354 M592.6578414194141,479.83065190742354 L593.5239257959324,480.7571040910124 M593.5239257959324,480.7571040910124 L594.6887693879199,481.569282038176 M601.3721472640798,436.3360017856457 L601.3067031844162,483.1394353033867 M594.739525823318,434.7694237234948 L596.1615345406954,435.43453739547084 M596.1615345406954,435.43453739547084 L597.7834521947364,435.9288161453721 M597.7834521947364,435.9288161453721 L599.5428911136321,436.2332150001879 M599.5428911136321,436.2332150001879 L601.3721472640798,436.3360017856457 M594.6887693879199,481.569282038176 L596.107627797682,482.2359137430275 M596.107627797682,482.2359137430275 L597.72595323629,482.73132049560894 M597.72595323629,482.73132049560894 L599.4814963396825,483.03641397277045 M599.4814963396825,483.03641397277045 L601.3067031844162,483.1394353033867 M632.4873605325903,454.06167330825207 L632.3528203779529,500.905486864973 M601.3721472640798,436.3360017856457 L632.4873605325903,454.06167330825207 M601.3067031844162,483.1394353033867 L632.3528203779529,500.905486864973 M484.23423059156477,539.0831807791201 L484.4299608903278,586.1188126401912 M632.4873605325903,454.06167330825207 L484.23423059156477,539.0831807791201 M632.3528203779529,500.905486864973 L484.4299608903278,586.1188126401912 M146.40545230355727,661.8317102520361 L147.36737787136008,709.1388315656358 M484.23423059156477,539.0831807791201 L488.71193868279425,547.4061156940289 M488.71193868279425,547.4061156940289 L492.1000987124333,555.915538580756 M492.1000987124333,555.915538580756 L494.3771549888998,564.5644294552039 M494.3771549888998,564.5644294552039 L495.5276387463718,573.3047256551745 M495.5276387463718,573.3047256551745 L495.5422559637901,582.0876423760694 M495.5422559637901,582.0876423760694 L494.41811344220685,590.8638956496228 M494.41811344220685,590.8638956496228 L492.1586937311604,599.5840054395719 M492.1586937311604,599.5840054395719 L488.7739485127321,608.1985467625871 M488.7739485127321,608.1985467625871 L484.2803106271994,616.6584721956581 M484.2803106271994,616.6584721956581 L478.70062373725756,624.9153590324988 M478.70062373725756,624.9153590324988 L472.0640972137044,632.9217550134952 M472.0640972137044,632.9217550134952 L464.40620731729547,640.6314107963115 M464.40620731729547,640.6314107963115 L455.7684697672642,647.9996145887505 M455.7684697672642,647.9996145887505 L446.1983538087328,654.9834347811966 M446.1983538087328,654.9834347811966 L435.74894641726195,661.54203103181 M435.74894641726195,661.54203103181 L424.4786840621158,667.6369221088058 M424.4786840621158,667.6369221088058 L412.4510569262561,673.2321905021939 M412.4510569262561,673.2321905021939 L399.73426698042016,678.2947989797138 M399.73426698042016,678.2947989797138 L386.40079672881484,682.7946930707834 M386.40079672881484,682.7946930707834 L372.52700930435265,686.7051527788359 M372.52700930435265,686.7051527788359 L358.192581002157,690.0028999683811 M358.192581002157,690.0028999683811 L343.48016101127416,692.6682669041437 M343.48016101127416,692.6682669041437 L328.4748720384805,694.685271502685 M328.4748720384805,694.685271502685 L313.263510946589,696.0418921868667 M313.263510946589,696.0418921868667 L297.93439663203014,696.7299681873862 M297.93439663203014,696.7299681873862 L282.5764085432058,696.745410099453 M282.5764085432058,696.745410099453 L267.27881180276205,696.0880767960061 M267.27881180276205,696.0880767960061 L252.13036401440263,694.7619388796808 M252.13036401440263,694.7619388796808 L237.2188609807397,692.7749641730356 M237.2188609807397,692.7749641730356 L222.6307382428252,690.1389891303014 M222.6307382428252,690.1389891303014 L208.4502357761181,686.8698141837875 M208.4502357761181,686.8698141837875 L194.75911889520677,682.9869361512237 M194.75911889520677,682.9869361512237 L181.63604465100605,678.5134766983768 M181.63604465100605,678.5134766983768 L169.15608360733825,673.476040672586 M169.15608360733825,673.476040672586 L157.39034192897498,667.9044718118971 M157.39034192897498,667.9044718118971 L146.40545230355727,661.8317102520361 M484.4299608903278,586.1188126401912 L488.8978076580264,594.4603591707537 M488.8978076580264,594.4603591707537 L492.27853283221464,602.9887801120786 M492.27853283221464,602.9887801120786 L494.55063375388283,611.6569487304778 M494.55063375388283,611.6569487304778 L495.6986814910939,620.4166939591182 M495.6986814910939,620.4166939591182 L495.71340830244253,629.2191216880132 M495.71340830244253,629.2191216880132 L494.5919330381231,638.014838264193 M494.5919330381231,638.014838264193 L492.33773594936196,646.7542542709443 M492.33773594936196,646.7542542709443 L488.9607516880891,655.3878362003336 M488.9607516880891,655.3878362003336 L484.4773811350011,663.8664296535762 M484.4773811350011,663.8664296535762 L478.9104210576066,672.1415070073481 M478.9104210576066,672.1415070073481 L472.289018946369,680.1655138554056 M472.289018946369,680.1655138554056 L464.64857428107973,687.8921019264078 M464.64857428107973,687.8921019264078 L456.0305114951541,695.276464375622 M456.0305114951541,695.276464375622 L446.48219414003125,702.275578862273 M446.48219414003125,702.275578862273 L436.05658977729547,708.8485192202936 M436.05658977729547,708.8485192202936 L424.8120023039594,714.956723783727 M424.8120023039594,714.956723783727 L412.8117768236011,720.5642003387885 M412.8117768236011,720.5642003387885 L400.1239585091463,725.6378432623892 M400.1239585091463,725.6378432623892 L386.82086236248335,730.1475361221388 M386.82086236248335,730.1475361221388 L372.9786742908467,734.0665040513022 M372.9786742908467,734.0665040513022 L358.6768850209495,737.3714212717016 M358.6768850209495,737.3714212717016 L343.9979507243278,740.0425799106827 M343.9979507243278,740.0425799106827 L329.0267949138884,742.0639653386029 M329.0267949138884,742.0639653386029 L313.85001106546497,743.4235315554433 M313.85001106546497,743.4235315554433 L298.55571100827194,744.1131012253952 M298.55571100827194,744.1131012253952 L283.232565819259,744.1285766563118 M283.232565819259,744.1285766563118 L267.9696315256995,743.4698164280622 M267.9696315256995,743.4698164280622 L252.85545814077219,742.1407991988959 M252.85545814077219,742.1407991988959 L237.97763659525594,740.1495089640244 M237.97763659525594,740.1495089640244 L223.4224013543451,737.5078062217533 M223.4224013543451,737.5078062217533 L209.27379718560962,734.2315235766636 M209.27379718560962,734.2315235766636 L195.61340083212986,730.3401976299568 M195.61340083212986,730.3401976299568 L182.51968897533806,725.8569973637766 M182.51968897533806,725.8569973637766 L170.06756119641727,720.8085822551435 M170.06756119641727,720.8085822551435 L158.32796298708985,715.2248575504575 M158.32796298708985,715.2248575504575 L147.36737787136008,709.1388315656358 M146.40545230355727,661.8317102520361 L136.2632551412986,655.2935263509753 M136.2632551412986,655.2935263509753 L127.02039895602275,648.3283119772185 M127.02039895602275,648.3283119772185 L118.7280837795463,640.9767982180858 M118.7280837795463,640.9767982180858 L111.43171567431955,633.2818279844914 M111.43171567431955,633.2818279844914 L105.170785799297,625.2880309081153 M105.170785799297,625.2880309081153 L99.9785785921635,617.041582862952 M99.9785785921635,617.041582862952 L95.88206061450148,608.589920456385 M95.88206061450148,608.589920456385 L92.90189232498767,599.9813785248814 M92.90189232498767,599.9813785248814 L91.05209565127552,591.265039164176 M91.05209565127552,591.265039164176 L90.34034592905073,582.4902779040438 M90.34034592905073,582.4902779040438 L90.76786446902213,573.706567018145 M90.76786446902213,573.706567018145 L92.32932670852728,564.9632556839788 M92.32932670852728,564.9632556839788 L95.01323883352887,556.309111588281 M95.01323883352887,556.309111588281 L98.80179721466527,547.7922752896036 M98.80179721466527,547.7922752896036 L103.67131582559409,539.4597756706553 M103.67131582559409,539.4597756706553 L109.59209259512068,531.3575063182807 M109.59209259512068,531.3575063182807 L116.52890686492583,523.5298402189826 M116.52890686492583,523.5298402189826 L124.44115490175113,516.0194135423928 M124.44115490175113,516.0194135423928 L133.28312175363226,508.86699952764474 M133.28312175363226,508.86699952764474 L143.00413905570105,502.11125059213737 M143.00413905570105,502.11125059213737 L153.54913524882465,495.7885336329115 M153.54913524882465,495.7885336329115 L164.85875214004326,489.9327401866772 M164.85875214004326,489.9327401866772 L176.86980813378474,484.5751424545712 M176.86980813378474,484.5751424545712 L189.5155611594903,479.7442670690796 M189.5155611594903,479.7442670690796 L202.72606947264592,475.4657766599774 M202.72606947264592,475.4657766599774 L216.42862109407287,471.7623046796477 M216.42862109407287,471.7623046796477 L230.54803876226384,468.6534215568778 M230.54803876226384,468.6534215568778 L245.00714273005042,466.15551201878753 M245.00714273005042,466.15551201878753 L259.7270390801101,464.28171501894917 M259.7270390801101,464.28171501894917 L274.62760338647416,463.04188528538145 M274.62760338647416,463.04188528538145 L289.62780344367366,462.4425313551381 M289.62780344367366,462.4425313551381 L304.64615719041666,462.4867922054192 M304.64615719041666,462.4867922054192 L319.60107805668156,463.174452180359 M319.60107805668156,463.174452180359 L334.4113228505773,464.501882535804 M334.4113228505773,464.501882535804 L348.99631230046816,466.4621193389364 M348.99631230046816,466.4621193389364 L363.27663578263946,469.0448592219388 M147.36737787136008,709.1388315656358 L137.24750933417704,702.5863490376203 M137.24750933417704,702.5863490376203 L128.02488208916043,695.6058820656058 M128.02488208916043,695.6058820656058 L119.75058601976917,688.2382473093786 M119.75058601976917,688.2382473093786 L112.4699313957779,680.5263781996518 M112.4699313957779,680.5263781996518 L106.22232809953738,672.5149992193425 M106.22232809953738,672.5149992193425 L101.04099433749013,664.2503849853322 M101.04099433749013,664.2503849853322 L96.95284558061928,655.7800741896702 M96.95284558061928,655.7800741896702 L93.97850613016823,647.1525063618728 M93.97850613016823,647.1525063618728 L92.13197726271233,638.416870618098 M92.13197726271233,638.416870618098 L91.42092829627478,629.6226508700884 M91.42092829627478,629.6226508700884 L91.8465892025647,620.8194287207032 M91.8465892025647,620.8194287207032 L93.40365876255282,612.0566631432355 M93.40365876255282,612.0566631432355 L96.08068011906732,603.3832310587151 M96.08068011906732,603.3832310587151 L99.85990035127548,594.8473815722461 M99.85990035127548,594.8473815722461 L104.7176967238263,586.4962503062335 M104.7176967238263,586.4962503062335 L110.62444318549927,578.375835675032 M110.62444318549927,578.375835675032 L117.54500654132357,570.5306126549087 M117.54500654132357,570.5306126549087 L125.43888152561215,563.0033160075149 M125.43888152561215,563.0033160075149 L134.26046194401545,555.8348137996484 M134.26046194401545,555.8348137996484 L143.95919802956615,549.0638488423011 M143.95919802956615,549.0638488423011 L154.48014537059876,542.7268735259032 M154.48014537059876,542.7268735259032 L165.76408117020776,536.8578594542946 M165.76408117020776,536.8578594542946 L177.74796643382302,531.4881530455527 M177.74796643382302,531.4881530455527 L190.3652083259194,526.6463489161898 M190.3652083259194,526.6463489161898 L203.54602020706014,522.3581710851506 M203.54602020706014,522.3581710851506 L217.2178501764265,518.6463073362082 M217.2178501764265,518.6463073362082 L231.30568543611713,515.5303752129794 M231.30568543611713,515.5303752129794 L245.73251416130398,513.0267989895095 M245.73251416130398,513.0267989895095 L260.41961329859225,511.1487493988183 M260.41961329859225,511.1487493988183 L275.2870312921254,509.90610504171593 M275.2870312921254,509.90610504171593 L290.25391024410766,509.3053902411395 M290.25391024410766,509.3053902411395 L305.2389429804289,509.3497515936769 M305.2389429804289,509.3497515936769 L320.16071779619386,510.0389729173459 M320.16071779619386,510.0389729173459 L334.9381655105037,511.3694166645983 M334.9381655105037,511.3694166645983 L349.49087946447366,513.3341020136243 M349.49087946447366,513.3341020136243 L363.7396192856259,515.9227006407159 M314.0078920262623,566.3521849383301 L314.58559707244854,613.4486850058063 M272.0223992265404,590.2704222218199 L272.69571538329194,637.4200497133143 M314.0078920262623,566.3521849383301 L309.634220279867,564.2540570173724 M309.634220279867,564.2540570173724 L304.6252580369635,562.6955543809954 M304.6252580369635,562.6955543809954 L299.1729583455626,561.7360557604758 M299.1729583455626,561.7360557604758 L293.4859654558282,561.4121150248902 M293.4859654558282,561.4121150248902 L287.78180839346135,561.7360659927962 M287.78180839346135,561.7360659927962 L282.27870553694385,562.6955586452406 M282.27870553694385,562.6955586452406 L277.1872415773913,564.2540652640234 M277.1872415773913,564.2540652640234 L272.7025010224528,566.3521849383301 M272.7025010224528,566.3521849383301 L268.99656626675795,568.9099028875685 M268.99656626675795,568.9099028875685 L266.2120902112284,571.8294886248786 M266.2120902112284,571.8294886248786 L264.4566234360047,574.9992556460522 M264.4566234360047,574.9992556460522 L263.798478891607,578.2977317102592 M263.798478891607,578.2977317102592 L264.26398337952736,581.5982673671117 M264.26398337952736,581.5982673671117 L265.83623938217966,584.7739283481095 M265.83623938217966,584.7739283481095 L268.4557262374585,587.7023312045939 M268.4557262374585,587.7023312045939 L272.0223992265404,590.2704222218199 M314.58559707244854,613.4486850058063 L310.22160954376193,611.3458850478085 M310.22160954376193,611.3458850478085 L305.2237813453621,609.7839107761079 M305.2237813453621,609.7839107761079 L299.7836400939474,608.8222743130325 M299.7836400939474,608.8222743130325 L294.1093666748892,608.4976117218343 M294.1093666748892,608.4976117218343 L288.4180058592103,608.8222845681533 M288.4180058592103,608.8222845681533 L282.9272887800996,609.783915049853 M282.9272887800996,609.783915049853 L277.8473281327985,611.3458933128264 M277.8473281327985,611.3458933128264 L273.3727690087658,613.4486850058063 M273.3727690087658,613.4486850058063 L269.6753036608918,616.0120958483262 M269.6753036608918,616.0120958483262 L266.89725861187617,618.9381764992161 M266.89725861187617,618.9381764992161 L265.145934857597,622.1149908663604 M265.145934857597,622.1149908663604 L264.48948233540756,625.4207958801398 M264.48948233540756,625.4207958801398 L264.9541582307501,628.728660412494 M264.9541582307501,628.728660412494 L266.52309233815714,631.9113685923162 M266.52309233815714,631.9113685923162 L269.1368876422954,634.8462661336278 M269.1368876422954,634.8462661336278 L272.69571538329194,637.4200497133143 M272.0223992265404,590.2704222218199 L276.39935439274024,592.3789537579535 M276.39935439274024,592.3789537579535 L281.4182631540467,593.946268378596 M281.4182631540467,593.946268378596 L286.8856580852201,594.9116458742035 M286.8856580852201,594.9116458742035 L292.5905512327182,595.2376633465143 M292.5905512327182,595.2376633465143 L298.3127180601248,594.9116538829763 M298.3127180601248,594.9116538829763 L303.83121185813127,593.9462732401751 M303.83121185813127,593.9462732401751 L308.9330888275486,592.3789546156243 M308.9330888275486,592.3789546156243 L313.42171120390174,590.2704222218199 M313.42171120390174,590.2704222218199 L317.12431440057605,587.7023280625899 M317.12431440057605,587.7023280625899 L319.898843954241,584.7739303464558 M319.898843954241,584.7739303464558 L321.6392315279802,581.5982753556796 M321.6392315279802,581.5982753556796 L322.2794758133158,578.2977225861875 M322.2794758133158,578.2977225861875 L321.7959616473749,574.9992453879008 M321.7959616473749,574.9992453879008 L320.2082987001065,571.8294815054513 M320.2082987001065,571.8294815054513 L317.57839878297074,568.9098906489467 M317.57839878297074,568.9098906489467 L314.0078920262623,566.3521849383301 M272.69571538329194,637.4200497133143 L277.0629721950379,639.5332530233854 M277.0629721950379,639.5332530233854 L282.0707028532321,641.1040390390882 M282.0707028532321,641.1040390390882 L287.5258720719502,642.0715541964272 M287.5258720719502,642.0715541964272 L293.21796560785674,642.3982934882323 M293.21796560785674,642.3982934882323 L298.92725531237426,642.0715622229324 M298.92725531237426,642.0715622229324 L304.43329400366423,641.1040439114336 M304.43329400366423,641.1040439114336 L309.52362046948207,639.5332538829562 M309.52362046948207,639.5332538829562 L314.00204347304947,637.4200497133143 M314.00204347304947,637.4200497133143 L317.69619150866646,634.8462629846573 M317.69619150866646,634.8462629846573 L320.46433411443456,631.9113705950956 M320.46433411443456,631.9113705950956 L322.20064590305174,628.7286684187949 M322.20064590305174,628.7286684187949 L322.8392783069124,625.4207867358016 M322.8392783069124,625.4207867358016 L322.35667360916597,622.1149805854088 M322.35667360916597,622.1149805854088 L320.77240192278373,618.9381693639555 M320.77240192278373,618.9381693639555 L318.14824074844546,616.0120835824708 M318.14824074844546,616.0120835824708 L314.58559707244854,613.4486850058063" stroke="black"  stroke-width="4"  fill="red"/>
<path d="M560.9723758809238,308.62594574289324 L560.9482676885322,261.27409552453713 M542.1340698884926,261.27409552453713 L542.4037871604057,262.53718604766067 M542.4037871604057,262.53718604766067 L543.2047292380021,263.7271567687684 M543.2047292380021,263.7271567687684 L544.4904956178033,264.7747757839151 M544.4904956178033,264.7747757839151 L546.1864335984883,265.6190552469637 M546.1864335984883,265.6190552469637 L548.1939599885018,266.2108192771592 M548.1939599885018,266.2108192771592 L550.3962871825386,266.5155819396272 M550.3962871825386,266.5155819396272 L552.6652527124501,266.515582384925 M552.6652527124501,266.515582384925 L554.8687895210956,266.2108185921266 M554.8687895210956,266.2108185921266 L556.8786627115044,265.619055726431 M556.8786627115044,265.619055726431 L558.577951335112,264.77477619481925 M558.577951335112,264.77477619481925 L559.8678747678973,263.7271569057084 M559.8678747678973,263.7271569057084 L560.6735367450444,262.53718591075256 M560.6735367450444,262.53718591075256 L560.9482676885322,261.27409552453713 M542.1999616413003,308.6259457428933 L542.1340698884926,261.27409552453713 M560.9723758809238,308.62594574289324 L560.6982581243474,309.89207335525884 M560.6982581243474,309.89207335525884 L559.8943887058938,311.08490511730116 M559.8943887058938,311.08490511730116 L558.6073336953973,312.1350424398862 M558.6073336953973,312.1350424398862 L556.9118229657186,312.9813509140972 M556.9118229657186,312.9813509140972 L554.9064174761992,313.5745356980857 M554.9064174761992,313.5745356980857 L552.7077780235006,313.8800317334705 M552.7077780235006,313.8800317334705 L550.4438541117698,313.88003128710284 M550.4438541117698,313.88003128710284 L548.2464189051764,313.57453638476426 M548.2464189051764,313.57453638476426 L546.2433497966811,312.98135043347787 M546.2433497966811,312.98135043347787 L544.5511748400861,312.1350420279947 M544.5511748400861,312.1350420279947 L543.2682584343975,311.08490498003204 M543.2682584343975,311.08490498003204 L542.4690879673296,309.892073492496 M542.4690879673296,309.892073492496 L542.1999616413003,308.6259457428933 M622.8956144619735,273.74741233136007 L623.0089473538944,226.47950261776674 M622.8956144619735,273.74741233136007 L560.9723758809238,308.62594574289324 M623.0089473538944,226.47950261776674 L560.9482676885322,261.27409552453713 M672.4956973626204,198.73453865479948 L632.3528165282498,221.240821284451 M632.3528165282498,221.240821284451 L632.1247931697324,222.40607121845386 M632.1247931697324,222.40607121845386 L631.4381895031189,223.5131379901178 M631.4381895031189,223.5131379901178 L630.327307291614,224.50645292221108 M630.327307291614,224.50645292221108 L628.8477858840125,225.3361267506813 M628.8477858840125,225.3361267506813 L627.0738101803682,225.96046960692232 M627.0738101803682,225.96046960692232 L625.0944038510195,226.34809181306662 M625.0944038510195,226.34809181306662 L623.0089473538944,226.47950261776674 M542.1340698884926,261.27409552453713 L511.11992882238843,243.84711520203624 M439.35472665897373,352.3691794750565 L511.11992882238843,243.84711520203624 M632.8945923933984,312.27282659955404 L439.35472665897373,352.3691794750565 M632.8945923933984,312.27282659955404 L601.5702331748953,294.671533352313 M601.5702331748953,294.671533352313 L599.3111923111446,294.5171835343583 M599.3111923111446,294.5171835343583 L597.1827351324248,294.0631299183868 M597.1827351324248,294.0631299183868 L595.3087119713829,293.33583618268244 M595.3087119713829,293.33583618268244 L593.798104865102,292.37767502835686 M593.798104865102,292.37767502835686 L592.738678335244,291.2444417875969 M592.738678335244,291.2444417875969 L592.1918939472089,290.00209104846067 M592.1918939472089,290.00209104846067 L592.1893468302347,288.72287313343975 M592.1893468302347,288.72287313343975 L592.730988615122,287.481133660491 M592.730988615122,287.481133660491 L593.7851613218,286.3489839653621 M593.7851613218,286.3489839653621 L595.2904877183048,285.392128588515 M595.2904877183048,285.392128588515 L597.1594601412194,284.6660649218919 M597.1594601412194,284.6660649218919 L599.2835315635798,284.21288470372286 M599.2835315635798,284.21288470372286 L601.5394051840187,284.058848552005 M601.5394051840187,284.058848552005 L713.0850533792454,221.24081693874462 M713.0850533792454,221.24081693874462 L672.4956973626204,198.73453865479948 M511.2544689770258,291.1569895257376 L511.11992882238843,243.84711520203624 M542.1999616413003,308.6259457428933 L511.2544689770258,291.1569895257376 M632.218871632693,268.49604718663113 L631.9913374503667,269.6641194397019 M631.9913374503667,269.6641194397019 L631.306238516227,270.7738670583251 M631.306238516227,270.7738670583251 L630.1978016975086,271.76958692384346 M630.1978016975086,271.76958692384346 L628.7215440189063,272.60126916152603 M628.7215440189063,272.60126916152603 L626.9514867358266,273.22712318002823 M626.9514867358266,273.22712318002823 L624.9764567296018,273.6156835032082 M624.9764567296018,273.6156835032082 L622.8956144619735,273.74741233136007 M672.2734413678154,245.93513660114075 L632.218871632693,268.49604718663113 M712.7725152726755,268.496042830398 L672.2734413678154,245.93513660114075 M601.473219453763,331.46538009131405 L712.7725152726755,268.496042830398 M601.473219453763,331.46538009131405 L599.2223660289849,331.61978514556813 M599.2223660289849,331.61978514556813 L597.1030199339033,332.0740506290559 M597.1030199339033,332.0740506290559 L595.2382040085059,332.80185286924285 M595.2382040085059,332.80185286924285 L593.736224033442,333.76099910391696 M593.736224033442,333.76099910391696 L592.6843930835332,334.89585882275276 M592.6843930835332,334.89585882275276 L592.1439517930041,336.1405700016943 M592.1439517930041,336.1405700016943 L592.1464875797908,337.4228486124952 M592.1464875797908,337.4228486124952 L592.6920485898826,338.6681711551065 M592.6920485898826,338.6681711551065 L593.7491099936784,339.80411459470815 M593.7491099936784,339.80411459470815 L595.2563471847129,340.7645668151731 M595.2563471847129,340.7645668151731 L597.1261913767428,341.49359932107376 M597.1261913767428,341.49359932107376 L599.2499037151488,341.94873834425994 M599.2499037151488,341.94873834425994 L601.503910292922,342.1034571122833 M632.7582424839923,359.7467554939104 L601.503910292922,342.1034571122833 M632.7582424839923,359.7467554939104 L439.65149375058377,399.9382932962732 M439.65149375058377,399.9382932962732 L511.2544689770258,291.1569895257376 M632.218871632693,268.49604718663113 L632.3528165282498,221.240821284451 M672.2734413678154,245.93513660114075 L672.4956973626204,198.73453865479948 M712.7725152726755,268.496042830398 L713.0850533792454,221.24081693874462 M601.473219453763,331.46538009131405 L601.5394051840187,284.058848552005 M601.503910292922,342.1034571122833 L601.5702331748953,294.671533352313 M632.7582424839923,359.7467554939104 L632.8945923933984,312.27282659955404 M439.65149375058377,399.9382932962732 L439.35472665897373,352.3691794750565" stroke="black"  stroke-width="4"  fill="red"/>
<path d="M560.9240519369098,213.71098398473373 L560.8997279234177,165.9352310425138 M542.001402529932,165.9352310425138 L542.2723095115794,167.19212746444637 M542.2723095115794,167.19212746444637 L543.0768184773256,168.37626393004984 M543.0768184773256,168.37626393004984 L544.3683229594428,169.41874764085884 M544.3683229594428,169.41874764085884 L546.0718374184113,170.25888924181595 M546.0718374184113,170.25888924181595 L548.0883381447442,170.84775337275246 M548.0883381447442,170.84775337275246 L550.3005149461101,171.1510226856136 M550.3005149461101,171.1510226856136 L552.5796313740552,171.15102312872946 M552.5796313740552,171.15102312872946 L554.7930286353054,170.8477526910766 M554.7930286353054,170.8477526910766 L556.8118972109264,170.25888971893357 M556.8118972109264,170.25888971893357 L558.5187923523513,169.41874804974884 M558.5187923523513,169.41874804974884 L559.8144911557933,168.37626406631844 M559.8144911557933,168.37626406631844 L560.6237623398022,167.19212732820975 M560.6237623398022,167.19212732820975 L560.8997279234177,165.9352310425138 M542.06788415818,213.71098398473373 L542.001402529932,165.9352310425138 M560.9240519369098,213.71098398473373 L560.648705057094,214.97099740877525 M560.648705057094,214.97099740877525 L559.8412425089098,216.1580702006633 M559.8412425089098,216.1580702006633 L558.5484378397502,217.20313849844555 M558.5484378397502,217.20313849844555 L556.8453544490105,218.0453625264902 M556.8453544490105,218.0453625264902 L554.8309936067203,218.63568485700836 M554.8309936067203,218.63568485700836 L552.6225375762086,218.93970681931592 M552.6225375762086,218.93970681931592 L550.3485079232571,218.939706375102 M550.3485079232571,218.939706375102 L548.1412669118411,218.63568554037354 M548.1412669118411,218.63568554037354 L546.1292633591617,218.04536204819004 M546.1292633591617,218.04536204819004 L544.4295455808419,217.20313808854198 M544.4295455808419,217.20313808854198 L543.1409165364746,216.15807006405694 M543.1409165364746,216.15807006405694 L542.3381949763864,214.97099754534972 M542.3381949763864,214.97099754534972 L542.06788415818,213.71098398473373 M623.1227841566761,179.00142608805422 L623.2371281502915,131.31181475902628 M623.1227841566761,179.00142608805422 L560.9240519369098,213.71098398473373 M623.2371281502915,131.31181475902628 L560.8997279234177,165.9352310425138 M672.9431722934607,103.70410170216343 L632.6224959435995,126.09899717441914 M632.6224959435995,126.09899717441914 L632.3934879020111,127.25849211752018 M632.3934879020111,127.25849211752018 L631.703854856263,128.360092351846 M631.703854856263,128.360092351846 L630.5880493489082,129.34850334575623 M630.5880493489082,129.34850334575623 L629.1019570010652,130.1740817815421 M629.1019570010652,130.1740817815421 L627.3200921822495,130.79534318459167 M627.3200921822495,130.79534318459167 L625.331874768106,131.18105244661035 M625.331874768106,131.18105244661035 L623.2371281502915,131.31181475902628 M542.001402529932,165.9352310425138 L510.84904692340785,148.5938532158885 M438.7571760621958,256.58715661715644 L510.84904692340785,148.5938532158885 M633.1691303442125,216.68497316767372 L438.7571760621958,256.58715661715644 M633.1691303442125,216.68497316767372 L601.7037714969829,199.16935787642166 M601.7037714969829,199.16935787642166 L599.4345942985304,199.0157605822743 M599.4345942985304,199.0157605822743 L597.296583551305,198.56392079937598 M597.296583551305,198.56392079937598 L595.414146165743,197.84017351022865 M595.414146165743,197.84017351022865 L593.8967538214276,196.8866852670718 M593.8967538214276,196.8866852670718 L592.8325651475654,195.75897978911632 M592.8325651475654,195.75897978911632 L592.2833174708139,194.52269035935376 M592.2833174708139,194.52269035935376 L592.2807474644463,193.24971503036411 M592.2807474644463,193.24971503036411 L592.8248063082747,192.01403661233255 M592.8248063082747,192.01403661233255 L593.8836939480104,190.88741422428424 M593.8836939480104,190.88741422428424 L595.3957581200275,189.9352312148956 M595.3957581200275,189.9352312148956 L597.273099370221,189.2127134818482 M597.273099370221,189.2127134818482 L599.4066849405688,188.76174672795935 M599.4066849405688,188.76174672795935 L601.6726664302544,188.6084629744534 M601.6726664302544,188.6084629744534 L713.7143053824934,126.09899285017786 M713.7143053824934,126.09899285017786 L672.9431722934607,103.70410170216343 M510.9847894403271,196.32652777049682 L510.84904692340785,148.5938532158885 M542.06788415818,213.71098398473373 L510.9847894403271,196.32652777049682 M672.7189388724191,151.3246464798085 L632.4873566744197,173.7755933358075 M632.4873566744197,173.7755933358075 L632.258842033892,174.93798430116615 M632.258842033892,174.93798430116615 L631.5707270109615,176.0423354060366 M631.5707270109615,176.0423354060366 L630.4573885932366,177.03321416243227 M630.4573885932366,177.03321416243227 L628.9745889938231,177.86085348620054 M628.9745889938231,177.86085348620054 L627.1966774825767,178.48366554281955 M627.1966774825767,178.48366554281955 L625.2128753927132,178.870337440069 M625.2128753927132,178.870337440069 L623.1227841566761,179.00142608805422 M439.0566236991708,304.58593791557723 L510.9847894403271,196.32652777049682 M633.0315536751618,264.5860317931495 L439.0566236991708,304.58593791557723 M633.0315536751618,264.5860317931495 L601.6368529275694,247.02729752104008 M601.605886863558,236.44033885682035 L599.3449706037941,236.59400125956367 M599.3449706037941,236.59400125956367 L597.2161527357475,237.04608195398612 M597.2161527357475,237.04608195398612 L595.3430052450645,237.77038420280707 M595.3430052450645,237.77038420280707 L593.8343174821525,238.72491861603288 M593.8343174821525,238.72491861603288 L592.777792568294,239.85432266614532 M592.777792568294,239.85432266614532 L592.2349449439209,241.0930513634936 M592.2349449439209,241.0930513634936 L592.237503467197,242.36916833367053 M592.237503467197,242.36916833367053 L592.7855167320508,243.60850818000932 M592.7855167320508,243.60850818000932 L593.8473189953721,244.73899556567238 M593.8473189953721,244.73899556567238 L595.3613111197033,245.6948355059504 M595.3613111197033,245.6948355059504 L597.2395319709797,246.42036758754847 M597.2395319709797,246.42036758754847 L599.3727552395161,246.8733215097096 M599.3727552395161,246.8733215097096 L601.6368529275694,247.02729752104008 M713.3989804039868,173.77558900076463 L601.605886863558,236.44033885682035 M713.3989804039868,173.77558900076463 L672.7189388724191,151.3246464798085 M632.4873566744197,173.7755933358075 L632.6224959435995,126.09899717441914 M672.7189388724191,151.3246464798085 L672.9431722934607,103.70410170216343 M713.3989804039868,173.77558900076463 L713.7143053824934,126.09899285017786 M601.605886863558,236.44033885682035 L601.6726664302544,188.6084629744534 M601.6368529275694,247.02729752104008 L601.7037714969829,199.16935787642166 M633.0315536751618,264.5860317931495 L633.1691303442125,216.68497316767372 M439.0566236991708,304.58593791557723 L438.7571760621958,256.58715661715644" stroke="black"  stroke-width="4"  fill="red"/>
<path d="M601.7397459943575,140.5617094067564 L601.6726664302544,188.6084629744534 M601.7037714969829,199.16935787642166 L599.4345942985304,199.0157605822743 M599.4345942985304,199.0157605822743 L597.296583551305,198.56392079937598 M597.296583551305,198.56392079937598 L595.414146165743,197.84017351022865 M595.414146165743,197.84017351022865 L593.8967538214276,196.8866852670718 M593.8967538214276,196.8866852670718 L592.8325651475654,195.75897978911632 M592.8325651475654,195.75897978911632 L592.2833174708139,194.52269035935376 M592.2833174708139,194.52269035935376 L592.2807474644463,193.24971503036411 M592.2807474644463,193.24971503036411 L592.8248063082747,192.01403661233255 M592.8248063082747,192.01403661233255 L593.8836939480104,190.88741422428424 M593.8836939480104,190.88741422428424 L595.3957581200275,189.9352312148956 M595.3957581200275,189.9352312148956 L597.273099370221,189.2127134818482 M597.273099370221,189.2127134818482 L599.4066849405688,188.76174672795935 M599.4066849405688,188.76174672795935 L601.6726664302544,188.6084629744534 M601.7709910019644,151.09619910227678 L601.7037714969829,199.16935787642166 M601.7397459943575,140.5617094067564 L599.4686765241469,140.71460955538055 M599.4686765241469,140.71460955538055 L597.3303018443701,141.1644477890086 M597.3303018443701,141.1644477890086 L595.4487480106109,141.88515764723633 M595.4487480106109,141.88515764723633 L593.9332922803478,142.8349584684762 M593.9332922803478,142.8349584684762 L592.8720313216572,143.95876277022825 M592.8720313216572,143.95876277022825 L592.3267558404403,145.19135095856512 M592.3267558404403,145.19135095856512 L592.3293374073974,146.461143489811 M592.3293374073974,146.461143489811 L592.8798250705211,147.69434253220126 M592.8798250705211,147.69434253220126 L593.9464109078449,148.81922964202624 M593.9464109078449,148.81922964202624 L595.467218781991,149.77033536013468 M595.467218781991,149.77033536013468 L597.3538916796086,150.492274456699 M597.3538916796086,150.492274456699 L599.4967114461288,150.94298549143554 M599.4967114461288,150.94298549143554 L601.7709910019644,151.09619910227678 M664.2158064532931,105.87052487851025 L664.009443285688,153.8299741293427 M664.2158064532931,105.87052487851025 L601.7397459943575,140.5617094067564 M664.009443285688,153.8299741293427 L601.6726664302544,188.6084629744534 M673.3946344319104,148.59385538767125 L671.2968948720265,148.7250696961185 M671.2968948720265,148.7250696961185 L669.3068271783245,149.11215189425846 M669.3068271783245,149.11215189425846 L667.5240972707161,149.73574933722293 M667.5240972707161,149.73574933722293 L666.0380302607934,150.56467017179128 M666.0380302607934,150.56467017179128 L664.9231405976643,151.55744036475483 M664.9231405976643,151.55744036475483 L664.2354085542743,152.66435841308538 M664.2354085542743,152.66435841308538 L664.009443285688,153.8299741293427 M713.7143053824934,126.09899285017786 L673.3946344319104,148.59385538767125 M672.9431722934607,103.70410170216343 L713.7143053824934,126.09899285017786 M560.8997279234177,165.9352310425138 L672.9431722934607,103.70410170216343 M542.001402529932,165.9352310425138 L542.2723095115794,167.19212746444637 M542.2723095115794,167.19212746444637 L543.0768184773256,168.37626393004984 M543.0768184773256,168.37626393004984 L544.3683229594428,169.41874764085884 M544.3683229594428,169.41874764085884 L546.0718374184113,170.25888924181595 M546.0718374184113,170.25888924181595 L548.0883381447442,170.84775337275246 M548.0883381447442,170.84775337275246 L550.3005149461101,171.1510226856136 M550.3005149461101,171.1510226856136 L552.5796313740552,171.15102312872946 M552.5796313740552,171.15102312872946 L554.7930286353054,170.8477526910766 M554.7930286353054,170.8477526910766 L556.8118972109264,170.25888971893357 M556.8118972109264,170.25888971893357 L558.5187923523513,169.41874804974884 M558.5187923523513,169.41874804974884 L559.8144911557933,168.37626406631844 M559.8144911557933,168.37626406631844 L560.6237623398022,167.19212732820975 M560.6237623398022,167.19212732820975 L560.8997279234177,165.9352310425138 M510.84904692340785,148.5938532158885 L542.001402529932,165.9352310425138 M510.84904692340785,148.5938532158885 L438.7571760621958,256.58715661715644 M438.7571760621958,256.58715661715644 L633.1691303442125,216.68497316767372 M601.7037714969829,199.16935787642166 L633.1691303442125,216.68497316767372 M633.3073267709087,168.5681290640108 L633.1691303442125,216.68497316767372 M601.7709910019644,151.09619910227678 L633.3073267709087,168.5681290640108 M673.6218842660328,100.64759662900474 L671.519455150406,100.77848024287908 M671.519455150406,100.77848024287908 L669.5249441743215,101.16458693637469 M669.5249441743215,101.16458693637469 L667.738239504579,101.78661296035989 M667.738239504579,101.78661296035989 L666.2488652576131,102.61344524229622 M666.2488652576131,102.61344524229622 L665.1315017177133,103.60371444654072 M665.1315017177133,103.60371444654072 L664.4422535359255,104.70784445803253 M664.4422535359255,104.70784445803253 L664.2158064532931,105.87052487851025 M714.0310381627473,78.20953948898045 L673.6218842660328,100.64759662900474 M673.1684045993063,55.87142334368821 L714.0310381627473,78.20953948898045 M560.8752948826735,117.9453333804293 L673.1684045993063,55.87142334368821 M560.8752948826735,117.9453333804293 L560.5987078081328,119.19907189869008 M560.5987078081328,119.19907189869008 L559.7876198664014,120.38023430554574 M559.7876198664014,120.38023430554574 L558.4890139394765,121.42010027584098 M558.4890139394765,121.42010027584098 L556.7782899436279,122.25813242801212 M556.7782899436279,122.25813242801212 L554.7548934111384,122.84551700628617 M554.7548934111384,122.84551700628617 L552.5365327545758,123.14802611578023 M552.5365327545758,123.14802611578023 L550.2523067394656,123.14802567377666 M550.2523067394656,123.14802567377666 L548.0351720202115,122.84551768625056 M548.0351720202115,122.84551768625056 L546.0141539677983,122.25813195209236 M546.0141539677983,122.25813195209236 L544.3068258259075,121.42009986797768 M544.3068258259075,121.42009986797768 L543.0124330427132,120.38023416961943 M543.0124330427132,120.38023416961943 L542.2061286923351,119.19907203458456 M542.2061286923351,119.19907203458456 L541.9346229118296,117.9453333804293 M510.7126970142366,100.64759446269528 L541.9346229118296,117.9453333804293 M510.7126970142366,100.64759446269528 L438.45637416449426,208.3712994216329 M438.45637416449426,208.3712994216329 L633.3073267709087,168.5681290640108 M673.6218842660328,100.64759662900474 L673.3946344319104,148.59385538767125 M714.0310381627473,78.20953948898045 L713.7143053824934,126.09899285017786 M673.1684045993063,55.87142334368821 L672.9431722934607,103.70410170216343 M560.8752948826735,117.9453333804293 L560.8997279234177,165.9352310425138 M541.9346229118296,117.9453333804293 L542.001402529932,165.9352310425138 M510.7126970142366,100.64759446269528 L510.84904692340785,148.5938532158885 M438.45637416449426,208.3712994216329 L438.7571760621958,256.58715661715644" stroke="black"  stroke-width="4"  fill="red"/>
<path d="M361.4039123159282,279.42852704717984 L361.87523961597765,327.1511916465414 M510.9847894403272,196.32652777049682 L511.11992882238843,243.84711520203624 M361.4039123159282,279.42852704717984 L510.9847894403272,196.32652777049682 M361.87523961597765,327.1511916465414 L511.11992882238843,243.84711520203624 M542.06788415818,213.71098398473373 L542.1340698884926,261.27409552453713 M510.9847894403272,196.32652777049682 L542.06788415818,213.71098398473373 M511.11992882238843,243.84711520203624 L542.1340698884926,261.27409552453713 M544.8194245014711,217.43485311732158 L544.8795078160447,265.0070563596292 M542.06788415818,213.71098398473373 L542.2460557907564,214.7381246895657 M542.2460557907564,214.7381246895657 L542.7798022607133,215.72598877790517 M542.7798022607133,215.72598877790517 L543.6487017049039,216.6365792678189 M543.6487017049039,216.6365792678189 L544.8194245014711,217.43485311732158 M542.1340698884926,261.27409552453713 L542.3118515795177,262.30374456712315 M542.3118515795177,262.30374456712315 L542.8444161823996,263.2940206405479 M542.8444161823996,263.2940206405479 L543.7113868519513,264.2068340636623 M543.7113868519513,264.2068340636623 L544.8795078160447,265.0070563596292 M551.4854467003945,218.9781301664789 L551.5306942380566,266.5540994843035 M544.8194245014711,217.43485311732158 L546.2470009552998,218.0900731873221 M546.2470009552998,218.0900731873221 L547.8765481806993,218.57699984968252 M547.8765481806993,218.57699984968252 L549.6453848188942,218.87687110416067 M549.6453848188942,218.87687110416067 L551.4854467003945,218.9781301664789 M544.8795078160447,265.0070563596292 L546.3039092729178,265.66387549789107 M546.3039092729178,265.66387549789107 L547.929830445237,266.15199038544864 M547.929830445237,266.15199038544864 L549.6947295855812,266.4525933504575 M549.6947295855812,266.4525933504575 L551.5306942380566,266.5540994843035 M560.9240519369098,213.71098398473373 L560.9482676885322,261.27409552453713 M551.4854467003945,218.9781301664789 L553.5847156862754,218.84600479694888 M553.5847156862754,218.84600479694888 L555.5790902905028,218.45627508943775 M555.5790902905028,218.45627508943775 L557.3684365012739,217.8285387013986 M557.3684365012739,217.8285387013986 L558.8629612956098,216.99435484362823 M558.8629612956098,216.99435484362823 L559.9877228180217,215.99564281227916 M559.9877228180217,215.99564281227916 L560.6863879982066,214.88256232986825 M560.6863879982066,214.88256232986825 L560.9240519369098,213.71098398473373 M551.5306942380566,266.5540994843035 L553.6252877385957,266.42165172873894 M553.6252877385957,266.42165172873894 L555.6152196537565,266.03097103571304 M555.6152196537565,266.03097103571304 L557.4005793109372,265.40170275818286 M557.4005793109372,265.40170275818286 L558.8917738958424,264.56548294149366 M558.8917738958424,264.56548294149366 L560.0140285441953,263.5643329921925 M560.0140285441953,263.5643329921925 L560.7111355864824,262.448534895463 M560.7111355864824,262.448534895463 L560.9482676885322,261.27409552453713 M672.7189388724191,151.3246464798085 L672.4956973626204,198.73453865479948 M560.9240519369098,213.71098398473373 L672.7189388724191,151.3246464798085 M560.9482676885322,261.27409552453713 L672.4956973626204,198.73453865479948 M713.3989804039868,173.77558900076463 L713.0850533792454,221.24081693874462 M672.7189388724191,151.3246464798085 L713.3989804039868,173.77558900076463 M672.4956973626204,198.73453865479948 L713.0850533792454,221.24081693874462 M673.1683969181436,196.32652994768299 L672.9431646290761,243.84711738455636 M713.3989804039868,173.77558900076463 L673.1683969181436,196.32652994768299 M713.0850533792454,221.24081693874462 L672.9431646290761,243.84711738455636 M663.8039998708541,201.5756699431601 L663.5994697589695,249.10911127882045 M673.1683969181436,196.32652994768299 L671.075326036482,196.45807070976133 M671.075326036482,196.45807070976133 L669.0896818687454,196.84611590174336 M669.0896818687454,196.84611590174336 L667.3109090749072,197.47126460845035 M667.3109090749072,197.47126460845035 L665.8281346446422,198.30224720403066 M665.8281346446422,198.30224720403066 L664.7157079268678,199.29748629808816 M664.7157079268678,199.29748629808816 L664.0294853667501,200.40715660594765 M664.0294853667501,200.40715660594765 L663.8039998708541,201.5756699431601 M672.9431646290761,243.84711738455636 L670.8547416943723,243.97898040650503 M670.8547416943723,243.97898040650503 L668.87350143443,244.36797622071555 M668.87350143443,244.36797622071555 L667.0986682293358,244.994656260177 M667.0986682293358,244.994656260177 L665.6191718236068,245.82767412325967 M665.6191718236068,245.82767412325967 L664.5091971958317,246.8253503878617 M664.5091971958317,246.8253503878617 L663.8244775098851,247.93773757612297 M663.8244775098851,247.93773757612297 L663.5994697589695,249.10911127882045 M601.605886863558,236.44033885682035 L601.5394051840187,284.058848552005 M663.8039998708541,201.5756699431601 L601.605886863558,236.44033885682035 M663.5994697589695,249.10911127882045 L601.5394051840187,284.058848552005 M592.1672926127501,241.73106951815396 L592.1218426458474,289.3624417518696 M601.605886863558,236.44033885682035 L599.5036108232664,236.57292206150623 M599.5036108232664,236.57292206150623 L597.5073701579672,236.96404119381916 M597.5073701579672,236.96404119381916 L595.7171389747982,237.59414216207517 M595.7171389747982,237.59414216207517 L594.2226157553348,238.43170906282262 M594.2226157553348,238.43170906282262 L593.0987423604233,239.43483315897714 M593.0987423604233,239.43483315897714 L592.4019463957037,240.55329631987038 M592.4019463957037,240.55329631987038 L592.1672926127501,241.73106951815396 M601.5394051840187,284.058848552005 L599.4418180168632,284.19175423590616 M599.4418180168632,284.19175423590616 L597.4500283490902,284.58382463373584 M597.4500283490902,284.58382463373584 L595.6637876570671,285.21545796908646 M595.6637876570671,285.21545796908646 L594.1725946365136,286.05506151162643 M594.1725946365136,286.05506151162643 L593.0512241570277,287.0606244160031 M593.0512241570277,287.0606244160031 L592.3559780006694,288.18180627815667 M592.3559780006694,288.18180627815667 L592.1218426458474,289.3624417518696 M594.9448231299084,245.475499013037 L594.8931550175109,293.11596707647334 M592.1672926127501,241.73106951815396 L592.3510330037534,242.76388135007795 M592.3510330037534,242.76388135007795 L592.891132496721,243.75719919475483 M592.891132496721,243.75719919475483 L593.7669273781016,244.67281730359804 M593.7669273781016,244.67281730359804 L594.9448231299084,245.475499013037 M592.1218426458474,289.3624417518696 L592.3051683077833,290.39776306676026 M592.3051683077833,290.39776306676026 L592.8440576460573,291.39349399186597 M592.8440576460573,291.39349399186597 L593.7178930455639,292.31133604052366 M593.7178930455639,292.31133604052366 L594.8931550175109,293.11596707647334 M601.6368529275696,247.02729752104008 L601.5702331748953,294.671533352313 M594.9448231299084,245.475499013037 L596.3795742231887,246.13433729694174 M596.3795742231887,246.13433729694174 L598.0160216397178,246.62395298583934 M598.0160216397178,246.62395298583934 L599.7912182757125,246.92548032765345 M599.7912182757125,246.92548032765345 L601.6368529275696,247.02729752104008 M594.8931550175109,293.11596707647334 L596.324699155215,293.77640514929766 M596.324699155215,293.77640514929766 L597.9574897797197,294.2672095979681 M597.9574897797197,294.2672095979681 L599.7287205837272,294.5694689791122 M599.7287205837272,294.5694689791122 L601.5702331748953,294.671533352313 M633.0315536751618,264.5860317931495 L632.8945923933984,312.27282659955404 M601.6368529275696,247.02729752104008 L633.0315536751618,264.5860317931495 M601.5702331748953,294.671533352313 L632.8945923933984,312.27282659955404 M483.4424608737606,348.8142791284899 L483.64174258585456,396.703345389237 M633.0315536751618,264.5860317931495 L483.4424608737606,348.8142791284899 M632.8945923933984,312.27282659955404 L483.64174258585456,396.703345389237 M142.51375012744307,470.43932696987633 L143.49333604870088,518.6149775245144 M483.4424608737606,348.8142791284899 L487.960053341036,357.06022341439837 M487.960053341036,357.06022341439837 L491.378282572606,365.49105287735637 M491.378282572606,365.49105287735637 L493.67537812745707,374.06018890649744 M493.67537812745707,374.06018890649744 L494.8357098625266,382.7200171527544 M494.8357098625266,382.7200171527544 L494.84987719715326,391.4222049492624 M494.84987719715326,391.4222049492624 L493.71493793392864,400.117922135993 M493.71493793392864,400.117922135993 L491.43438366608433,408.75814132830203 M491.43438366608433,408.75814132830203 L488.0182347246064,417.2938867545007 M488.0182347246064,417.2938867545007 L483.48305301116096,425.67655389251627 M483.48305301116096,425.67655389251627 L477.8518716949917,433.85815451091236 M477.8518716949917,433.85815451091236 L471.1541503061521,441.79165944627573 M471.1541503061521,441.79165944627573 L463.4256755819975,449.4312292137473 M463.4256755819975,449.4312292137473 L454.70833244015733,456.7325459020818 M454.70833244015733,456.7325459020818 L445.0500176582541,463.65305395222015 M445.0500176582541,463.65305395222015 L434.50430130023625,470.15226880512887 M434.50430130023625,470.15226880512887 L423.13015620811143,476.1920427297149 M423.13015620811143,476.1920427297149 L410.9916595885644,481.7367680107823 M410.9916595885644,481.7367680107823 L398.1576478955452,486.7536910779303 M398.1576478955452,486.7536910779303 L384.70128147218475,491.213014494073 M384.70128147218475,491.213014494073 L370.69964067301703,495.088245909926 M370.69964067301703,495.088245909926 L356.23315280727456,498.35630487502686 M356.23315280727456,498.35630487502686 L341.385248249343,500.9976902141978 M341.385248249343,500.9976902141978 L326.24185590658976,502.9965549128505 M326.24185590658976,502.9965549128505 L310.890595825618,504.3409787589658 M310.890595825618,504.3409787589658 L295.420624986843,505.0228697430117 M295.420624986843,505.0228697430117 L279.92166620055815,505.038172859225 M279.92166620055815,505.038172859225 L264.4838308725849,504.38674819595644 M264.4838308725849,504.38674819595644 L249.19671678413766,503.0725329200738 M249.19671678413766,503.0725329200738 L234.14894888992302,501.10342772874327 M234.14894888992302,501.10342772874327 L219.42777649093046,498.4911692828751 M219.42777649093046,498.4911692828751 L205.11822953905966,495.2514244971799 M205.11822953905966,495.2514244971799 L191.302836426657,491.4035250971619 M191.302836426657,491.4035250971619 L178.06098404340483,486.97039641663844 M178.06098404340483,486.97039641663844 L165.46843475477365,481.97841665282795 M165.46843475477365,481.97841665282795 L153.59694475391677,476.45717438853364 M153.59694475391677,476.45717438853364 L142.51375012744307,470.43932696987633 M483.64174258585456,396.703345389237 L488.1492975102209,404.96892470385 M488.1492975102209,404.96892470385 L491.55995953544686,413.4197985845636 M491.55995953544686,413.4197985845636 L493.8520123045996,422.00927588880575 M493.8520123045996,422.00927588880575 L495.00986632827687,430.6896279520233 M495.00986632827687,430.6896279520233 L495.02414788416286,439.4124068018433 M495.02414788416286,439.4124068018433 L493.8919271461848,448.12866653163354 M493.8919271461848,448.12866653163354 L491.6166934696325,456.78926428996755 M491.6166934696325,456.78926428996755 L488.20844994363375,465.3451097007577 M488.20844994363375,465.3451097007577 L483.6837260196923,473.7474852326456 M483.6837260196923,473.7474852326456 L478.06550719919863,481.94829178041056 M478.06550719919863,481.94829178041056 L471.3831900733458,489.90039219662765 M471.3831900733458,489.90039219662765 L463.6724832530438,497.55784237807427 M463.6724832530438,497.55784237807427 L454.9751787426534,504.87622386085 M454.9751787426534,504.87622386085 L445.3390657165822,511.81288507373984 M445.3390657165822,511.81288507373984 L434.8175926443944,518.3272506098972 M434.8175926443944,518.3272506098972 L423.46959735397485,524.3810875708366 M423.46959735397485,524.3810875708366 L411.35900928084925,529.9387091198741 M411.35900928084925,529.9387091198741 L398.55450515419705,534.9672892325286 M398.55450515419705,534.9672892325286 L385.1290746719938,539.4369648136712 M385.1290746719938,539.4369648136712 L371.159617623822,543.3211853578484 M371.159617623822,543.3211853578484 L356.72637224197297,546.5968199093052 M356.72637224197297,546.5968199093052 L341.9125722242975,549.2443247369574 M341.9125722242975,549.2443247369574 L326.8039435008801,551.2478183147704 M326.8039435008801,551.2478183147704 L311.48789886331235,552.5953545296479 M311.48789886331235,552.5953545296479 L296.0533842848009,553.2788238021062 M296.0533842848009,553.2788238021062 L280.5899102397249,553.2941623362019 M280.5899102397249,553.2941623362019 L265.18737506380614,552.6412299098613 M265.18737506380614,552.6412299098613 L249.93516500766023,551.3239722337853 M249.93516500766023,551.3239722337853 L234.9216962745907,549.3503071575124 M234.9216962745907,549.3503071575124 L220.2340132937958,546.7319968414594 M220.2340132937958,546.7319968414594 L205.95694713849016,543.4847423155111 M205.95694713849016,543.4847423155111 L192.17283410053435,539.6279174861498 M192.17283410053435,539.6279174861498 L178.96087734417443,535.184497846928 M178.96087734417443,535.184497846928 L166.39666509294312,530.1809194965786 M166.39666509294312,530.1809194965786 L154.55178992243003,524.6468361965696 M154.55178992243003,524.6468361965696 L143.49333604870088,518.6149775245144 M142.51375012744307,470.43932696987633 L132.2812451059076,463.9603363043472 M132.2812451059076,463.9603363043472 L122.95657885871049,457.05826160103163 M122.95657885871049,457.05826160103163 L114.59139678014077,449.77347920491997 M114.59139678014077,449.77347920491997 L107.23149215849577,442.14845684896125 M107.23149215849577,442.14845684896125 L100.9166845987163,434.2274311142235 M100.9166845987163,434.2274311142235 L95.68052606969104,426.0561687841828 M95.68052606969104,426.0561687841828 L91.55018937150925,417.68168362268005 M91.55018937150925,417.68168362268005 L88.5464807567123,409.15187691416315 M88.5464807567123,409.15187691416315 L86.68350519166495,400.5153876642395 M86.68350519166495,400.5153876642395 L85.96896183725278,391.8211427766968 M85.96896183725278,391.8211427766968 L86.40403644197158,383.1181620809439 M86.40403644197158,383.1181620809439 L87.98330948681325,374.4553404819185 M87.98330948681325,374.4553404819185 L90.69513714364348,365.8809938182025 M90.69513714364348,365.8809938182025 L94.52151015922902,357.44281374369484 M94.52151015922902,357.44281374369484 L99.4384860128473,349.18738780468 M99.4384860128473,349.18738780468 L105.41605468241187,341.16017624846774 M105.41605468241187,341.16017624846774 L112.41864131036681,333.40513053900384 M112.41864131036681,333.40513053900384 L120.40524349817167,325.96447944645377 M120.40524349817167,325.96447944645377 L129.32970605598757,318.8786044385367 M129.32970605598757,318.8786044385367 L139.14088063184215,312.1857845469167 M139.14088063184215,312.1857845469167 L149.7831811538355,305.9220335833217 M149.7831811538355,305.9220335833217 L161.19670160953717,300.1209124616605 M161.19670160953717,300.1209124616605 L173.31768349893093,294.81338696230296 M173.31768349893093,294.81338696230296 L186.07878107042254,290.0277030682618 M186.07878107042254,290.0277030682618 L199.40942521015367,285.7892700148533 M199.40942521015367,285.7892700148533 L213.2362565057951,282.1204970169401 M213.2362565057951,282.1204970169401 L227.48343257322972,279.0407600679438 M227.48343257322972,279.0407600679438 L242.07309459617545,276.5662807044024 M242.07309459617545,276.5662807044024 L256.92565772788487,274.71006675053434 M256.92565772788487,274.71006675053434 L271.9602985300072,273.4818744345118 M271.9602985300072,273.4818744345118 L287.0952799951238,272.8881471628494 M287.0952799951238,272.8881471628494 L302.24841293408974,272.9319924769161 M302.24841293408974,272.9319924769161 L317.33740374905204,273.61319689114214 M317.33740374905204,273.61319689114214 L332.2803056788011,274.9281679827645 M332.2803056788011,274.9281679827645 L346.9958415343383,276.87001150097217 M346.9958415343383,276.87001150097217 L361.4039123159282,279.42852704717984 M143.49333604870088,518.6149775245144 L133.28355832114283,512.1208841664595 M133.28355832114283,512.1208841664595 L123.97947991985671,505.2027002844012 M123.97947991985671,505.2027002844012 L115.63263417699062,497.90089280593446 M115.63263417699062,497.90089280593446 L108.28871696099884,490.2580252538854 M108.28871696099884,490.2580252538854 L101.98746526033034,482.3184345505669 M101.98746526033034,482.3184345505669 L96.76236376714462,474.12799190265923 M96.76236376714462,474.12799190265923 L92.64053343854522,465.7338189941241 M92.64053343854522,465.7338189941241 L89.64274390305832,457.1839277483996 M89.64274390305832,457.1839277483996 L87.78307930230818,448.5270702292954 M87.78307930230818,448.5270702292954 L87.06923287873883,439.81228779629004 M87.06923287873883,439.81228779629004 L87.50239941109368,431.08871569338004 M87.50239941109368,431.08871569338004 L89.0771833595827,422.4053646912335 M89.0771833595827,422.4053646912335 L91.78197873125248,413.81066586075974 M91.78197873125248,413.81066586075974 L95.59882810175355,405.3524253228627 M95.59882810175355,405.3524253228627 L100.5038535786648,397.07734314675724 M100.5038535786648,397.07734314675724 L106.46712271410001,389.03099005033823 M106.46712271410001,389.03099005033823 L113.4531498586021,381.257424942836 M113.4531498586021,381.257424942836 L121.4210330061556,373.7989804278201 M121.4210330061556,373.7989804278201 L130.32472781494488,366.6961378124425 M130.32472781494488,366.6961378124425 L140.11320677699115,359.9872712724489 M140.11320677699115,359.9872712724489 L150.73101334527735,353.7084845819828 M150.73101334527735,353.7084845819828 L162.11837940612807,347.8934228863903 M162.11837940612807,347.8934228863903 L174.2116916695819,342.57313002496625 M174.2116916695819,342.57313002496625 L186.94375632456516,337.7759234690018 M186.94375632456516,337.7759234690018 L200.24416215124432,333.5272769950578 M200.24416215124432,333.5272769950578 L214.03971267302808,329.8496569290952 M214.03971267302808,329.8496569290952 L228.25473288631082,326.7624887826631 M228.25473288631082,326.7624887826631 L242.81153485877536,324.2820356511395 M242.81153485877536,324.2820356511395 L257.630707606889,322.4213387514336 M257.630707606889,322.4213387514336 L272.631603585025,321.19017939443836 M272.631603585025,321.19017939443836 L287.73266313179965,320.59501757161456 M287.73266313179965,320.59501757161456 L302.8518749867467,320.6389688290843 M302.8518749867467,320.6389688290843 L317.90712345388715,321.3218191286893 M317.90712345388715,321.3218191286893 L332.8166388028999,322.63996679877175 M332.8166388028999,322.63996679877175 L347.4993194537635,324.5864998445542 M347.4993194537635,324.5864998445542 L361.87523961597765,327.1511916465414 M311.67088661103605,375.8314747203482 L312.2591013657441,423.78476233257237 M269.29854564582695,399.529890624261 L269.98413908496565,447.539246915309 M311.67088661103605,375.8314747203482 L307.25804440274885,373.752676325908 M307.25804440274885,373.752676325908 L302.20404547428876,372.2085366496598 M302.20404547428876,372.2085366496598 L296.7025636669394,371.2578827081403 M296.7025636669394,371.2578827081403 L290.96411750136184,370.93692842024893 M290.96411750136184,370.93692842024893 L285.2081948245044,371.2578928461305 M285.2081948245044,371.2578928461305 L279.65498499968066,372.20854087460043 M279.65498499968066,372.20854087460043 L274.5169820983837,373.7526844965698 M274.5169820983837,373.7526844965698 L269.9910483114072,375.8314747203482 M269.9910483114072,375.8314747203482 L266.25084448912816,378.3656392235422 M266.25084448912816,378.3656392235422 L263.4403441442705,381.2583528109244 M263.4403441442705,381.2583528109244 L261.6681078982662,384.39896147089314 M261.6681078982662,384.39896147089314 L261.0031085976893,387.6671134106538 M261.0031085976893,387.6671134106538 L261.47195515101157,390.9373246065543 M261.47195515101157,390.9373246065543 L263.05764003965976,394.0838260041179 M263.05764003965976,394.0838260041179 L265.70014285881183,396.9853549167782 M265.70014285881183,396.9853549167782 L269.29854564582695,399.529890624261 M312.2591013657441,423.78476233257237 L307.8561173941113,421.7010338974011 M307.8561173941113,421.7010338974011 L302.8134533883357,420.1532309397108 M302.8134533883357,420.1532309397108 L297.32435010553235,419.2003211681861 M297.32435010553235,419.2003211681861 L291.5988543489889,418.87860519044597 M291.5988543489889,418.87860519044597 L285.85596096050455,419.2003313302352 M285.85596096050455,419.2003313302352 L280.31536322681734,420.153235174676 M280.31536322681734,420.153235174676 L275.1890746356875,421.70104208744414 M275.1890746356875,421.70104208744414 L270.6735099270025,423.78476233257237 M270.6735099270025,423.78476233257237 L266.94193262927723,426.3249342491741 M266.94193262927723,426.3249342491741 L264.13798381650145,429.22450177053594 M264.13798381650145,429.22450177053594 L262.3699698277008,432.372547563614 M262.3699698277008,432.372547563614 L261.70669734764704,435.6484340696513 M261.70669734764704,435.6484340696513 L262.17470420603615,438.9263800131728 M262.17470420603615,438.9263800131728 L263.75701049778434,442.08031912759395 M263.75701049778434,442.08031912759395 L266.3937215334962,444.98870283887203 M266.3937215334962,444.98870283887203 L269.98413908496565,447.539246915309 M269.29854564582695,399.529890624261 L273.7147287445906,401.6190904899672 M273.7147287445906,401.6190904899672 L278.77885339890724,403.17204040420523 M278.77885339890724,403.17204040420523 L284.2957041056069,404.12857213791415 M284.2957041056069,404.12857213791415 L290.0523765585158,404.45160266897653 M290.0523765585158,404.45160266897653 L295.8266380383074,404.1285800733092 M295.8266380383074,404.1285800733092 L301.39552088116045,403.1720452212337 M301.39552088116045,403.1720452212337 L306.5441288169957,401.6190913397762 M306.5441288169957,401.6190913397762 L311.07401745933475,399.529890624261 M311.07401745933475,399.529890624261 L314.8108318067484,396.9853518036004 M314.8108318067484,396.9853518036004 L317.6112064422465,394.0838279841204 M317.6112064422465,394.0838279841204 L319.36808997547223,390.93733252174786 M319.36808997547223,390.93733252174786 L320.01486298817736,387.6671043704375 M320.01486298817736,387.6671043704375 L319.527677721336,384.3989513070776 M319.527677721336,384.3989513070776 L317.9263036645443,381.25834575700725 M317.9263036645443,381.25834575700725 L315.2731957575984,378.3656270975964 M315.2731957575984,378.3656270975964 L311.67088661103605,375.8314747203482 M269.98413908496565,447.539246915309 L274.3904494392525,449.63337784876705 M274.3904494392525,449.63337784876705 L279.4431939177364,451.18999189694006 M279.4431939177364,451.18999189694006 L284.9475969912889,452.1487800088664 M284.9475969912889,452.1487800088664 L290.6912366979777,452.4725724511816 M290.6912366979777,452.4725724511816 L296.4523857898984,452.14878796297864 M296.4523857898984,452.14878796297864 L302.00858529990126,451.1899967253326 M302.00858529990126,451.1899967253326 L307.1454304245267,449.6333787005813 M307.1454304245267,449.6333787005813 L311.66493153774877,447.539246915309 M311.66493153774877,447.539246915309 L315.39313398049615,444.98869971834154 M315.39313398049615,444.98869971834154 L318.1870023370724,442.08032111227544 M318.1870023370724,442.08032111227544 L319.9397326843673,438.92638794708165 M319.9397326843673,438.92638794708165 L320.5848612135413,435.6484250080464 M320.5848612135413,435.6484250080464 L320.0985987405231,432.37253737573684 M320.0985987405231,432.37253737573684 L318.5006745593437,429.2244946999099 M318.5006745593437,429.2244946999099 L315.85340693720065,426.32492209448964 M315.85340693720065,426.32492209448964 L312.2591013657441,423.78476233257237" stroke="black"  stroke-width="4"  fill="red"/></svg>